<?xml version="1.0" encoding="UTF-8" standalone="no"?>
<!-- Created with Inkscape (http://www.inkscape.org/) -->

<svg
   xmlns:dc="http://purl.org/dc/elements/1.1/"
   xmlns:cc="http://creativecommons.org/ns#"
   xmlns:rdf="http://www.w3.org/1999/02/22-rdf-syntax-ns#"
   xmlns:svg="http://www.w3.org/2000/svg"
   xmlns="http://www.w3.org/2000/svg"
   xmlns:sodipodi="http://sodipodi.sourceforge.net/DTD/sodipodi-0.dtd"
   xmlns:inkscape="http://www.inkscape.org/namespaces/inkscape"
   width="78.063828mm"
   height="86.59729mm"
   viewBox="0 0 276.60411 306.84079"
   id="svg7223"
   version="1.1"
   inkscape:version="0.91 r13725"
   sodipodi:docname="betterangels-circle-logo.svg">
  <defs
     id="defs7225" />
  <sodipodi:namedview
     id="base"
     pagecolor="#ffffff"
     bordercolor="#666666"
     borderopacity="1.0"
     inkscape:pageopacity="0.0"
     inkscape:pageshadow="2"
     inkscape:zoom="1.4"
     inkscape:cx="4.4460454"
     inkscape:cy="187.27778"
     inkscape:document-units="px"
     inkscape:current-layer="layer1"
     showgrid="false"
     fit-margin-top="0"
     fit-margin-left="0"
     fit-margin-right="0"
     fit-margin-bottom="0"
     inkscape:window-width="1440"
     inkscape:window-height="851"
     inkscape:window-x="0"
     inkscape:window-y="1"
     inkscape:window-maximized="1"
     showguides="false">
    <inkscape:grid
       type="xygrid"
       id="grid3334" />
  </sodipodi:namedview>
  <metadata
     id="metadata7228">
    <rdf:RDF>
      <cc:Work
         rdf:about="">
        <dc:format>image/svg+xml</dc:format>
        <dc:type
           rdf:resource="http://purl.org/dc/dcmitype/StillImage" />
        <dc:title></dc:title>
      </cc:Work>
    </rdf:RDF>
  </metadata>
  <g
     inkscape:groupmode="layer"
     id="layer2"
     inkscape:label="circle" />
  <g
     inkscape:label="Layer 1"
     inkscape:groupmode="layer"
     id="layer1"
     transform="translate(137.26099,41.779745)">
    <g
       id="g4141"
       inkscape:export-xdpi="105.54"
       inkscape:export-ydpi="105.54">
      <ellipse
         inkscape:export-ydpi="76.027115"
         inkscape:export-xdpi="76.027115"
         ry="105.35715"
         rx="109.15691"
         cy="149.34079"
         cx="135.84308"
         id="path3336"
         style="fill:#a589d1;fill-opacity:1;fill-rule:evenodd;stroke:#000000;stroke-width:0;stroke-linecap:butt;stroke-linejoin:miter;stroke-miterlimit:4;stroke-dasharray:none;stroke-opacity:1"
         transform="translate(-137.26099,-41.779745)" />
      <path
         inkscape:export-ydpi="76.027115"
         inkscape:export-xdpi="76.027115"
         inkscape:connector-curvature="0"
         id="path7782"
         d="m 54.513189,184.39142 c -5.931213,-6.35337 -9.717192,-13.62709 -11.280194,-21.67175 -0.607426,-3.12635 -0.810082,-6.05078 -0.724337,-10.45255 l 0.02316,-1.1888 0.666505,-0.47912 c 1.093366,-0.78594 3.106529,-2.85275 4.202662,-4.31467 1.580368,-2.10771 3.07542,-4.72808 4.353659,-7.63063 0.280545,-0.63704 0.550607,-1.11772 0.60014,-1.06818 0.04949,0.0495 -0.09101,0.95889 -0.312316,2.02077 -0.561258,2.69312 -0.977595,5.3528 -1.38238,8.83104 -0.455816,3.91678 -0.49181,11.57437 -0.07372,15.6825 0.656387,6.4497 2.002188,12.65723 4.094494,18.886 0.389029,1.15814 0.683759,2.12928 0.654952,2.15807 -0.02879,0.0289 -0.39899,-0.3189 -0.822627,-0.77268 z m -115.551922,-0.82508 c 3.210901,-8.89157 4.653833,-14.9602 5.425397,-22.81805 0.265222,-2.70108 0.265834,-12.53232 0.0016,-15.13361 -0.253067,-2.48521 -1.085148,-8.19428 -1.378884,-9.46087 -0.283462,-1.22224 -0.204816,-1.39564 0.173904,-0.3834 1.20799,3.22877 2.676547,6.20066 4.268482,8.63807 0.895218,1.37066 1.685397,2.32108 3.130305,3.76508 l 1.932806,1.93159 -0.0015,2.06745 c -0.0078,10.06685 -3.246153,19.39513 -9.380805,27.02272 -1.453818,1.80763 -4.335494,4.82783 -4.170528,4.37102 z m 99.21835,-0.96923 c -0.903242,-1.14223 -2.523833,-4.47088 -3.240476,-6.65582 -1.966528,-5.99567 -2.496771,-13.28991 -1.418285,-19.51044 0.38724,-2.23353 0.879346,-4.15103 1.066134,-4.1542 0.569203,-0.0101 3.355322,-2.81423 5.712906,-5.75073 0.263885,-0.32867 0.511975,-0.56231 0.551315,-0.51918 0.03936,0.0432 -0.280521,0.85469 -0.710796,1.80349 -0.856539,1.88873 -1.530585,3.8121 -1.52683,4.35674 0.0048,0.69328 0.176708,0.77142 1.345896,0.61169 0.595372,-0.0814 1.102743,-0.13018 1.127495,-0.10848 0.02471,0.0217 -0.09496,0.68062 -0.266012,1.46437 -1.141417,5.22978 -1.573409,10.35379 -1.83346,21.74739 -0.0571,2.50137 -0.147479,5.18068 -0.200855,5.95404 l -0.09705,1.4061 -0.50998,-0.64494 z m -82.718431,-2.48092 c -0.03122,-1.20755 -0.07364,-4.52238 -0.09427,-7.36627 -0.06814,-9.3925 -0.553435,-15.94597 -1.537942,-20.76858 l -0.108937,-0.53361 0.612485,0.10185 c 0.336869,0.0561 0.887392,0.14828 1.223387,0.20499 l 0.6109,0.10308 -0.07836,-1.09509 c -0.06185,-0.86447 -0.282531,-1.60089 -1.047811,-3.49665 -0.5332,-1.32086 -0.949274,-2.46197 -0.924608,-2.53581 0.02467,-0.0739 0.715277,0.72875 1.534688,1.78353 1.574513,2.02677 4.010479,4.57612 4.530227,4.74109 0.230629,0.0732 0.370264,0.36599 0.548286,1.14968 1.866987,8.2189 1.112531,17.33396 -2.045422,24.71205 -0.616344,1.44 -2.018352,3.85696 -2.69522,4.64635 l -0.470641,0.5489 -0.05676,-2.19555 z m 106.36011,-15.00545 c -1.913572,-0.72315 -4.159206,-2.63844 -5.544309,-4.72871 -1.375073,-2.07511 -2.636873,-5.4673 -3.343892,-8.98963 -0.22429,-1.11742 -0.27792,-2.17826 -0.276237,-5.46408 0.0021,-3.85702 0.02542,-4.18524 0.433662,-6.07135 0.237362,-1.09663 0.529635,-2.26106 0.649496,-2.5876 0.215349,-0.58671 0.218172,-0.57704 0.238953,0.81771 0.05371,3.60373 0.333858,5.85645 0.914723,7.35463 0.230654,0.5949 0.533571,1.15326 0.673164,1.24078 0.379427,0.2379 1.096815,-0.34463 1.849488,-1.50183 0.349648,-0.53757 0.831025,-1.2597 1.069711,-1.60471 l 0.433979,-0.62731 0.101186,5.41047 c 0.0826,4.41685 0.160628,5.75608 0.424847,7.29237 0.651152,3.78617 1.710656,6.59148 3.538974,9.3703 0.274871,0.41778 0.274596,0.43101 -0.0088,0.42309 -0.160867,-0.005 -0.680626,-0.15484 -1.15502,-0.33413 z M -67.756493,162.6694 c 2.866826,-4.23842 4.106814,-9.90886 4.115297,-18.81901 0.0016,-1.40163 0.05793,-2.54841 0.125759,-2.54841 0.06784,0 0.533201,0.67166 1.034166,1.49258 0.950613,1.55777 1.735266,2.47821 2.037066,2.3896 0.291505,-0.0857 1.209841,-2.14483 1.44801,-3.24696 0.122103,-0.565 0.289518,-2.32459 0.372039,-3.91018 0.08252,-1.5856 0.176444,-2.90931 0.208716,-2.9416 0.08001,-0.08 0.686295,2.45129 0.887975,3.70736 0.09002,0.56064 0.207573,2.07793 0.261256,3.37174 0.363693,8.76642 -2.744237,17.00925 -7.624713,20.2222 -0.992576,0.65344 -2.675874,1.34125 -3.282476,1.34125 -0.253067,0 -0.188922,-0.16289 0.416905,-1.05857 z m 90.93541,-2.86871 c 0.09451,-0.12573 0.91766,-1.18733 1.829239,-2.35912 5.344226,-6.86979 10.343321,-14.73987 13.796992,-21.7206 2.556959,-5.16826 4.52323,-10.40788 5.703454,-15.19831 0.28586,-1.16025 0.563005,-1.9048 0.846457,-2.27396 1.793654,-2.33606 3.434255,-5.91172 4.569142,-9.9584 l 0.439821,-1.56826 -0.09,5.48889 c -0.05807,3.54159 -0.02879,6.06358 0.0825,7.10881 0.162592,1.52679 0.149604,1.7116 -0.225853,3.2149 -0.573,2.29425 -2.076212,6.685 -3.284271,9.59307 -4.433899,10.67346 -11.627944,19.80322 -20.23234,25.67632 -1.931677,1.3185 -3.696441,2.34426 -3.435151,1.99666 z m -52.78203,-1.11176 c -4.482239,-2.7809 -9.316304,-7.25693 -13.103851,-12.1333 -4.31482,-5.55524 -7.971134,-12.88814 -10.33689,-20.73108 -0.897055,-2.97389 -1.698225,-6.29835 -1.587443,-6.58705 0.21507,-0.56048 0.402677,-3.95262 0.427615,-7.73228 0.01507,-2.28572 0.07192,-4.61459 0.126306,-5.17523 0.09833,-1.01393 0.09954,-1.01602 0.224856,-0.39206 0.812495,4.0453 2.399847,8.13411 4.169493,10.74002 0.558799,0.82287 0.707563,1.23501 1.09227,3.02596 0.877844,4.0866 2.640328,9.46091 4.5041,13.73422 3.097444,7.10192 8.836326,16.64156 14.943412,24.84016 0.433685,0.58222 0.735951,1.05444 0.671702,1.0494 -0.06426,-0.004 -0.573456,-0.2925 -1.13157,-0.63876 z m 69.468899,-7.56424 c 0,-0.0376 0.271405,-0.65756 0.603121,-1.37773 0.331714,-0.7202 0.797873,-1.73287 1.035898,-2.25039 0.23803,-0.51752 0.696156,-1.50552 1.01806,-2.19555 0.321904,-0.69003 0.713066,-1.53688 0.869259,-1.8819 0.156186,-0.34502 0.775059,-1.68586 1.375269,-2.97968 2.052285,-4.42388 4.592711,-10.78232 5.701805,-14.27107 0.57217,-1.7998 0.653262,-1.94839 1.858527,-3.40571 l 1.260259,-1.52382 0.108572,0.58287 c 0.05969,0.32056 0.112068,1.39442 0.116333,2.38634 0.03604,8.38979 -3.54029,17.11084 -9.539027,23.26122 -1.824405,1.87052 -4.40808,4.01304 -4.40808,3.65542 z m -85.712083,-1.61941 c -1.324785,-1.02709 -3.60303,-3.35933 -4.719687,-4.83156 -4.193738,-5.5291 -6.492368,-11.11559 -7.284919,-17.70496 -0.20911,-1.7386 -0.113994,-6.77223 0.132629,-7.01886 0.09813,-0.0981 0.567395,0.39539 1.323758,1.39209 1.001944,1.3203 1.220838,1.72512 1.510385,2.79318 0.47325,1.7457 1.71769,5.52045 2.738322,8.3062 1.117661,3.05054 1.197469,3.2481 3.515501,8.70216 1.081826,2.54538 2.383509,5.60833 2.892641,6.80656 0.50913,1.19822 0.903069,2.20122 0.875418,2.22887 -0.02764,0.0277 -0.470473,-0.27551 -0.984048,-0.67368 z m 70.673575,-4.32188 c 4.799794,-6.74575 8.603497,-14.07626 10.964544,-21.13087 1.636542,-4.88985 2.455701,-8.38579 3.031928,-12.93937 l 0.357214,-2.82286 0.08794,2.76751 c 0.04837,1.52214 0.143296,2.85707 0.210941,2.96653 0.08969,0.1451 0.224508,0.0751 0.497763,-0.25831 l 0.374767,-0.45732 -0.08392,0.54888 c -0.04616,0.3019 -0.161146,0.97231 -0.255534,1.48985 -0.378062,2.07284 -0.375168,8.39014 0.0038,8.39014 0.358966,0 1.751491,-1.16701 2.498468,-2.09385 0.465284,-0.57731 0.866007,-1.02962 0.890491,-1.00514 0.08055,0.0806 -0.677352,2.83336 -1.345582,4.88735 -1.200864,3.69115 -3.123756,7.56387 -5.224599,10.52241 -1.305771,1.83885 -4.824642,5.43451 -6.536094,6.67871 -1.873342,1.36188 -5.670116,3.59332 -6.114014,3.59332 -0.09193,0 0.19689,-0.51164 0.641837,-1.13698 z m -55.067494,0.0188 c -3.969899,-2.1423 -7.944137,-5.55788 -10.590562,-9.10183 -1.36203,-1.82395 -3.047016,-4.70653 -3.834741,-6.56027 -1.153263,-2.71394 -2.53467,-7.28322 -2.892121,-9.56633 l -0.110498,-0.7057 0.425465,0.62729 c 1.009226,1.48802 2.73632,2.96864 2.987931,2.56152 0.342575,-0.55429 0.211,-7.58119 -0.184761,-9.86729 l -0.0927,-0.53548 0.348288,0.51946 c 0.196276,0.29273 0.407566,0.46018 0.484105,0.38363 0.0747,-0.0746 0.213036,-1.47288 0.307416,-3.10706 0.161725,-2.80026 0.297714,-3.91559 0.297714,-2.44174 0,0.36311 0.109047,1.66281 0.242328,2.8882 0.786614,7.23223 2.349358,13.05197 5.531029,20.59783 1.372089,3.25414 4.380854,8.75495 6.882421,12.58286 0.810053,1.23955 1.449617,2.27694 1.421253,2.3053 -0.02836,0.0283 -0.578518,-0.2328 -1.222566,-0.58036 z m 86.196192,-2.29279 c -0.05829,-0.75473 -0.27744,-3.10122 -0.487051,-5.21443 -0.682978,-6.88535 -0.763127,-8.31714 -0.773215,-13.81325 l -0.01,-5.4231 0.532163,-0.60651 c 1.031464,-1.1756 2.05546,-4.03473 2.05546,-5.73916 0,-0.86664 0.177305,-0.37662 0.471402,1.30281 0.606947,3.46597 1.219611,5.23851 2.314673,6.69671 l 0.398617,0.53081 -0.190505,4.17395 c -0.209485,4.58981 -0.210112,4.59751 -0.650263,7.87158 -0.323137,2.40371 -0.729061,4.45615 -1.269243,6.41758 -0.579323,2.10355 -1.873092,5.17523 -2.179776,5.17523 -0.0585,0 -0.154045,-0.6175 -0.212307,-1.37222 z m -117.132558,-0.78078 c -1.895823,-3.65467 -2.895931,-9.60016 -3.044226,-18.09756 l -0.08655,-4.96013 0.5054,-0.73459 c 1.03762,-1.50812 1.698164,-3.37373 2.362209,-6.67166 0.182058,-0.90421 0.351319,-1.66432 0.37613,-1.68914 0.02479,-0.0248 0.0846,0.47709 0.132876,1.11532 0.09543,1.26177 0.612971,3.30507 1.058274,4.17814 0.153985,0.3019 0.507813,0.83118 0.786304,1.17619 l 0.506356,0.6273 -0.101069,4.07745 c -0.123939,5.00047 -0.774513,11.97268 -1.946249,20.85774 l -0.124081,0.94094 -0.425372,-0.82 z m 113.601801,-4.90409 c -0.0043,-0.12938 0.05977,-0.3411 0.143395,-0.47048 0.185261,-0.28667 0.185261,-0.0391 0,0.39207 -0.08888,0.20681 -0.137714,0.23351 -0.143395,0.0784 z m 10.740898,-6.54034 c -0.641407,-6.53076 -2.443559,-15.58519 -4.345422,-21.83241 l -0.640697,-2.10452 0.248401,-1.11038 c 0.629517,-2.81404 0.942009,-5.07043 1.424345,-10.284657 0.21941,-2.371973 0.441975,-4.630253 0.494577,-5.018403 l 0.09563,-0.70572 0.300905,0.94096 c 2.384403,7.456353 3.446695,16.72186 3.218428,28.07169 -0.0887,4.40977 -0.504237,12.92184 -0.637311,13.05492 -0.02978,0.0298 -0.101298,-0.42536 -0.158861,-1.01148 z m -130.711253,-1.06569 c 0.0094,-0.345 -0.03525,-3.48543 -0.09927,-6.9787 -0.223472,-12.19134 0.544531,-20.74126 2.613131,-29.09106 0.733818,-2.96201 1.689994,-5.8648 1.704704,-5.17524 0.04972,2.32983 0.80249,12.4501 1.003164,13.48696 0.03338,0.17251 0.185978,1.03235 0.339103,1.91075 l 0.278409,1.59711 -0.723748,2.24511 c -1.287171,3.9928 -2.208062,7.46794 -3.165259,11.94448 -0.665111,3.11056 -1.649802,8.86448 -1.653237,9.66047 -0.0016,0.30632 -0.07254,0.66281 -0.15828,0.79219 -0.115566,0.1744 -0.151435,0.073 -0.138714,-0.39207 z m 98.373575,-6.58665 c 0.043,-0.1725 0.369704,-1.83093 0.726018,-3.68539 0.356313,-1.85446 0.929161,-4.74787 1.272994,-6.42982 1.57768,-7.71765 2.012753,-11.24299 2.12859,-17.247707 0.08536,-4.424823 0.115134,-4.811093 0.400598,-5.197203 0.169614,-0.22942 0.508609,-0.97179 0.753328,-1.64973 l 0.444943,-1.23262 0.0118,1.96031 c 0.01302,2.16355 0.266291,3.49894 0.678656,3.57835 0.278096,0.0536 1.431356,-1.58095 1.888547,-2.67661 0.134967,-0.32346 0.288876,-0.5881 0.342017,-0.5881 0.05314,0 0.05602,0.61751 0.0064,1.37223 -0.04962,0.75471 -0.163606,2.6425 -0.253284,4.195073 -0.587481,10.170747 -2.162996,17.275367 -5.020253,22.638337 -0.800388,1.50231 -2.483163,4.13337 -3.124,4.88447 -0.288385,0.338 -0.323731,0.3488 -0.256341,0.0784 z m -66.741345,-1.45063 c -2.972806,-4.00481 -5.228633,-10.09774 -6.22719,-16.81949 -0.403197,-2.71411 -0.964138,-11.61186 -0.949127,-15.05522 l 0.0044,-1.01935 0.769114,1.4762 c 0.423011,0.81192 0.939454,1.64655 1.147649,1.85475 l 0.378535,0.37854 0.279796,-0.58963 c 0.209481,-0.44144 0.304384,-1.16373 0.377634,-2.87411 l 0.09784,-2.28448 0.431561,1.25958 c 0.237357,0.69276 0.595293,1.50434 0.795412,1.80348 0.36078,0.53932 0.362538,0.5651 0.208185,3.05312 -0.314993,5.077373 0.27082,11.44926 1.924804,20.93615 1.018897,5.84414 1.51129,8.78221 1.471823,8.78221 -0.02261,0 -0.342321,-0.40579 -0.710477,-0.90175 z m 87.914284,-12.27156 c 0.07552,-11.750377 0.08528,-12.056797 0.474289,-14.8984 1.190128,-8.69331 1.77076,-16.35847 1.879287,-24.80943 0.08457,-6.58538 -0.204726,-12.12314 -0.911851,-17.454918 -0.11439,-0.862537 -0.188674,-1.590501 -0.16507,-1.617705 0.151625,-0.174695 2.086843,5.377897 3.105396,8.910063 3.072661,10.65553 4.076465,25.21401 2.524784,36.617903 -0.835833,6.142857 -2.73277,14.186067 -4.457024,18.898177 -0.268275,0.73317 -0.70067,1.92354 -0.960877,2.64527 -0.260199,0.72174 -0.719007,1.85088 -1.019566,2.5092 l -0.546476,1.19696 0.07711,-11.99712 z m -10.804679,10.27204 c 0.05526,-0.77629 0.230386,-2.85814 0.389226,-4.62635 0.285663,-3.17991 0.298348,-3.24222 1.165073,-5.7241 2.320904,-6.64597 3.804651,-15.89603 4.341593,-27.06666 0.201389,-4.18978 0.107864,-14.81199 -0.160713,-18.25171 -0.153173,-1.96182 -0.142373,-2.11392 0.301799,-4.24978 0.950485,-4.570531 1.41149,-8.51548 1.413059,-12.091973 0.0028,-6.054307 -1.112042,-10.463513 -3.705078,-14.655468 -0.77206,-1.248129 -0.857784,-1.466221 -0.70666,-1.797903 0.209815,-0.460491 0.562427,-0.477 1.248897,-0.05847 1.120666,0.683243 1.383922,1.184834 2.96029,5.640358 2.619704,7.404453 4.017846,14.515766 4.686624,23.837413 0.25718,3.58451 0.352766,13.46267 0.157383,16.26318 -0.05294,0.7588 -0.203931,2.9322 -0.335534,4.82979 -0.716663,10.33317 -2.72261,19.536733 -6.135416,28.150113 -1.201223,3.03167 -3.728719,8.16836 -4.900022,9.95839 l -0.820945,1.2546 0.100422,-1.41142 z m -87.460217,-1.06494 c -3.777447,-6.86119 -6.807261,-15.90524 -8.416975,-25.12486 -2.264306,-12.96867 -2.042226,-31.02533 0.542017,-44.067842 0.532422,-2.687066 1.512844,-6.618176 2.209855,-8.860619 0.685623,-2.205818 2.355339,-6.767933 2.985855,-8.158187 0.654823,-1.443868 1.867253,-2.403382 2.565026,-2.029947 0.455738,0.243904 0.368793,0.807991 -0.26866,1.743028 -0.31463,0.461501 -1.014478,1.756518 -1.555242,2.877817 -3.071216,6.368349 -3.504037,13.465703 -1.497994,24.56351 0.238782,1.32095 0.27377,1.92331 0.16854,2.90127 -0.07303,0.67881 -0.207243,2.61035 -0.298249,4.2923 -0.09099,1.68194 -0.204657,3.72577 -0.252583,4.54181 -0.149689,2.54878 -0.0959,13.12282 0.0818,16.08068 0.503753,8.384973 1.935864,16.93442 3.704038,22.11235 0.394585,1.1555 0.449159,1.62621 0.690933,5.95936 0.144379,2.58761 0.253646,4.71952 0.242814,4.73757 -0.01084,0.0181 -0.416362,-0.68764 -0.901175,-1.56824 z m -10.392755,-0.0681 c -2.510437,-6.52778 -4.394469,-14.44698 -5.326937,-22.390697 -0.646072,-5.503993 -0.881637,-11.924753 -0.573288,-15.625233 0.982474,-11.79041 2.945426,-20.93021 6.159114,-28.677851 0.953152,-2.297881 1.199476,-2.78515 1.011242,-2.00045 -0.205443,0.856444 -0.876954,5.899611 -1.112064,8.351861 -0.815788,8.50882 -0.726868,20.1106 0.235864,30.77204 0.17743,1.96497 0.390056,3.99608 0.472496,4.5136 0.290757,1.825303 0.342366,5.080993 0.171553,10.82093 -0.09497,3.1914 -0.218646,8.02553 -0.274818,10.74253 -0.05618,2.71699 -0.118217,4.9594 -0.137885,4.98312 -0.01963,0.0237 -0.301024,-0.64671 -0.625277,-1.48985 z m 83.352567,-3.30436 c -0.002,-0.19799 0.24262,-1.86251 0.543817,-3.69891 0.803269,-4.89754 1.046769,-7.21217 1.090825,-10.36902 l 0.03939,-2.822857 1.021501,-2.66603 C 30.313094,93.18307 30.549828,92.48967 31.078383,90.6475 l 0.157489,-0.54888 -0.07168,0.54888 c -0.03942,0.30189 -0.119423,1.68505 -0.177785,3.07369 -0.08517,2.026453 -0.06471,2.550383 0.103637,2.654433 0.308523,0.19068 1.373012,-1.0913 2.32716,-2.802643 l 0.800427,-1.43564 -0.0018,1.01937 c -0.0073,4.046763 -1.713049,10.49715 -4.167797,15.76093 -1.598307,3.42727 -3.34695,6.67583 -3.351712,6.22667 z m -59.092067,-3.12941 c -3.547743,-7.26769 -5.152713,-12.802189 -5.446028,-18.77981 -0.112782,-2.29843 -0.135431,-2.29367 0.95875,-0.20148 0.761495,1.45606 1.82498,2.796903 2.045259,2.578663 0.07328,-0.0726 0.12374,-1.543943 0.112113,-3.269583 l -0.02115,-3.13757 0.519027,2.01499 c 0.285464,1.10824 0.881525,3.03826 1.32458,4.288943 l 0.805556,2.27397 -0.103333,2.430777 c -0.112835,2.65421 0.0829,5.25503 0.773052,10.27206 0.537643,3.90835 0.604349,4.46951 0.531308,4.46951 -0.03506,0 -0.70967,-1.32322 -1.499141,-2.94047 z m 72.578676,-2.47279 c 0.002,-0.60224 0.105863,-2.92983 0.231019,-5.17245 0.272719,-4.886749 0.301438,-10.40646 0.06814,-13.09488 l -0.170119,-1.96032 1.043308,-3.21491 c 1.72146,-5.30462 2.140472,-7.75188 1.801659,-10.52265 -0.181734,-1.4862 -0.178862,-1.51546 0.227612,-2.3176 0.503426,-0.99347 1.29196,-3.7056 1.984935,-6.82718 0.420911,-1.89602 0.54149,-2.25449 0.637534,-1.89536 0.234695,0.87755 0.485433,9.75153 0.383278,13.56471 -0.436252,16.28428 -2.351231,26.76372 -5.845664,31.98952 l -0.365159,0.54609 0.0035,-1.09497 z m -85.031664,-0.89897 c -1.439713,-2.49915 -2.690358,-6.75282 -3.492754,-11.879507 -0.99046,-6.328143 -1.392512,-17.831683 -0.931807,-26.660263 0.108225,-2.07405 0.514135,-6.93378 0.585051,-7.0047 0.0293,-0.0293 0.2871,1.12901 0.572898,2.57399 0.684196,3.45912 1.173036,5.35739 1.706781,6.62775 l 0.437211,1.04059 -0.214863,1.40007 c -0.218369,1.4229 -0.183196,2.83593 0.126588,5.08546 0.182176,1.32287 0.450433,2.37266 1.574814,6.16278 l 0.78147,2.63422 -0.283749,1.99212 c -0.250184,1.75648 -0.279367,2.99845 -0.246712,10.49988 0.02037,4.67927 0.01739,8.50777 -0.0066,8.50777 -0.02401,0 -0.29775,-0.44108 -0.608307,-0.98016 z m 110.138757,-2.97965 c -0.0985,-0.36658 -0.668716,-3.10123 -1.267207,-6.076979 C 62.623261,92.62794 62.014131,89.94812 61.024744,86.39681 l -0.803719,-2.88488 0.02112,-3.68539 c 0.03802,-6.63169 -0.789708,-13.6434 -2.360305,-19.9952 -0.170632,-0.69002 -0.343904,-1.39573 -0.385059,-1.56825 -0.127717,-0.53528 1.043587,1.79682 1.772232,3.52857 2.494099,5.92765 3.892325,11.09252 4.967309,18.34853 0.210844,1.42319 0.426799,3.04633 0.479905,3.60698 0.05306,0.56066 0.161711,1.61922 0.241366,2.35238 0.35479,3.26532 0.61368,8.59735 0.71457,14.71618 0.0894,5.42481 0.0177,6.33595 -0.38216,4.84776 z m -134.197647,-3.80303 c 0.479132,-18.64533 2.996363,-32.21598 7.851639,-42.32906 1.265967,-2.636865 1.603675,-3.094096 1.168438,-1.58195 -0.657458,2.28423 -1.581014,6.50012 -2.023357,9.23634 -0.707749,4.37793 -0.95729,7.04858 -1.04927,11.22933 l -0.0845,3.84221 -0.753157,2.5092 c -0.414235,1.38007 -0.972985,3.42663 -1.241662,4.54793 -0.268687,1.12131 -0.593754,2.43521 -0.722382,2.91981 -0.128628,0.4846 -0.366282,1.47259 -0.528138,2.19555 -1.732054,7.73684 -2.569629,11.36432 -2.639069,11.4297 -0.04583,0.0432 -0.03616,-1.75646 0.02145,-3.99906 z m 89.324118,1.13699 c 0.238201,-0.79785 0.691376,-2.15319 1.007056,-3.011869 0.666353,-1.812528 1.122121,-3.541568 1.279542,-4.854168 0.08777,-0.731893 0.237021,-1.092873 0.710448,-1.718373 0.505452,-0.66782 1.46522,-2.46645 2.145202,-4.02017 0.434773,-0.99342 0.08258,3.56423 -0.45107,5.837313 -0.438049,1.86583 -1.219722,3.790788 -2.214773,5.454087 -0.844849,1.41223 -2.587661,3.76383 -2.789454,3.76383 -0.06602,0 0.07485,-0.6528 0.313049,-1.45065 z m -45.184724,0.33127 c -2.034993,-2.48939 -3.68862,-6.043837 -4.294567,-9.23109 -0.2495,-1.31236 -0.51756,-5.80253 -0.346406,-5.80253 0.04826,0 0.278766,0.51164 0.512246,1.13698 0.525432,1.40729 1.544975,3.35862 2.027988,3.88142 0.295218,0.31955 0.363869,0.57352 0.371145,1.37302 0.0091,0.996623 0.564687,3.215183 1.434877,5.72939 0.543355,1.5699 0.979188,3.22127 0.907179,3.4373 -0.02926,0.0878 -0.304875,-0.14822 -0.612462,-0.52449 z m 50.275918,-3.27174 c 0.179934,-0.846259 1.020276,-7.72667 1.197122,-9.80157 0.202617,-2.37728 0.109651,-5.75601 -0.225544,-8.1968 -0.109775,-0.79932 -0.165507,-1.48739 -0.123859,-1.52904 0.04165,-0.0417 0.313229,-0.0758 0.603513,-0.0758 1.066766,0 2.293288,-0.78093 2.832551,-1.80349 0.136465,-0.25875 0.368082,-0.85498 0.514712,-1.32492 l 0.266598,-0.85446 0.257885,0.88709 c 0.444888,1.53036 0.611183,3.36735 0.521277,5.75821 -0.140724,3.7422 -0.98227,7.12593 -2.844437,11.43703 -1.121883,2.597273 -3.187715,6.38739 -2.999818,5.50367 z M 13.83951,99.943031 c -0.0037,-0.10578 0.250553,-0.87904 0.564959,-1.718328 0.758902,-2.02585 0.992505,-2.94439 0.994743,-3.911433 0.0018,-0.75245 0.02962,-0.80929 0.436926,-0.89076 0.553134,-0.11061 1.510756,-0.86795 2.285821,-1.80774 0.332063,-0.40263 0.659718,-0.75306 0.728126,-0.77873 0.124509,-0.0468 -0.170453,1.66926 -0.439588,2.55731 -0.07866,0.25957 -0.337816,0.85941 -0.5759,1.33302 -0.751324,1.494543 -3.978013,5.70786 -3.995087,5.216661 z m -43.488161,-0.55657 c -0.361982,-0.55245 -1.512643,-2.878198 -2.112315,-4.269468 -1.416638,-3.286663 -2.49883,-7.062673 -2.870571,-10.016043 -0.350827,-2.7872 -0.07839,-6.4915 0.63681,-8.65857 l 0.198666,-0.60195 0.216441,0.84573 c 0.477845,1.86718 1.431154,2.88613 2.974622,3.17945 l 0.928348,0.17642 -0.188926,1.10765 c -0.74271,4.35445 -0.650289,9.36382 0.31484,17.064603 0.105402,0.840978 0.179095,1.529048 0.163772,1.529048 -0.01532,0 -0.133084,-0.16059 -0.261687,-0.35687 z m 11.016617,-0.54198 c -2.705602,-3.456198 -3.723684,-5.393131 -3.999344,-7.608911 -0.07785,-0.62579 -0.05866,-0.90174 0.06272,-0.90174 0.09619,0 0.174895,0.068 0.174895,0.15109 0,0.31052 1.890137,2.15736 2.480325,2.4235 l 0.613297,0.27655 0.08365,1.20126 c 0.04928,0.70763 0.255693,1.684543 0.502333,2.377423 0.680616,1.91204 0.999157,2.979678 0.889016,2.979678 -0.05678,0 -0.419883,-0.40449 -0.806888,-0.89885 z m 37.723957,-1.221348 c -0.230901,-2.15612 0.347903,-7.763823 0.857589,-8.308673 0.873526,-0.9338 1.716824,-3.67082 1.721844,-5.58845 0.0025,-0.90849 0.0481,-1.07028 0.360305,-1.27484 0.603409,-0.39537 1.1936,-1.40728 1.467032,-2.51532 0.236566,-0.95861 0.276969,-1.02332 0.437389,-0.70036 0.09722,0.19569 0.433037,0.52218 0.746279,0.72551 0.508598,0.33015 0.59023,0.47938 0.762969,1.39488 0.253784,1.345 0.101096,4.29381 -0.303071,5.85286 -0.369318,1.42465 -1.349727,3.82231 -2.232786,5.46043 -0.602751,1.11813 -3.334688,5.586133 -3.589547,5.870593 -0.06379,0.0712 -0.16639,-0.34128 -0.228003,-0.91663 z m -43.524419,-1.44257 c -3.316946,-5.596413 -4.488062,-8.584603 -4.658533,-11.886543 -0.05355,-1.03735 -0.01186,-2.27173 0.104412,-3.09082 0.184953,-1.30294 0.217291,-1.37769 0.725767,-1.6777 0.292703,-0.1727 0.663893,-0.53057 0.824862,-0.79527 l 0.292676,-0.48126 0.09486,0.80089 c 0.135524,1.14429 0.758136,2.41186 1.387232,2.82424 l 0.523021,0.34285 0,1.58844 c 0,2.06749 0.475084,3.68433 1.501299,5.10934 0.196779,0.27325 0.337774,0.89594 0.445616,1.96798 0.249901,2.48421 0.284643,7.297243 0.0526,7.287363 -0.06468,-0.003 -0.646903,-0.89804 -1.293807,-1.98951 z M 31.92998,92.21572 c 0.04462,-1.16442 0.159654,-3.46242 0.255636,-5.10666 0.204423,-3.50178 0.02427,-7.21918 -0.454044,-9.36947 l -0.307252,-1.38126 0.339313,-0.13335 c 0.521574,-0.205 1.607325,-1.40174 2.114402,-2.33055 0.379907,-0.69589 0.470241,-0.78097 0.54118,-0.50968 0.116361,0.44495 0.789234,0.43278 1.089681,-0.0197 0.224986,-0.33884 0.234246,-0.33221 0.492616,0.35287 0.96569,2.56049 1.158167,7.99604 0.391243,11.04864 -0.757781,3.01621 -1.195604,4.2959 -2.035161,5.94843 -0.691663,1.36143 -1.259787,2.22625 -2.01613,3.06901 l -0.492603,0.5489 0.08112,-2.11715 z m -18.217469,0.83205 c 0.342006,-1.01305 0.636254,-2.57514 0.983875,-5.22314 0.130215,-0.99192 0.324397,-2.15396 0.431515,-2.58231 0.170341,-0.68115 0.259447,-0.79729 0.710639,-0.92621 0.57151,-0.16328 1.119075,-0.79282 1.912503,-2.19878 l 0.521516,-0.92413 0.275252,0.53206 c 0.367416,0.71023 1.075529,1.35582 1.558015,1.42049 0.361869,0.0485 0.396044,0.125 0.443771,0.99349 0.140553,2.55765 -1.15556,5.40771 -3.391423,7.4575 -0.990242,0.90784 -2.686337,2.02328 -3.419705,2.24899 l -0.32959,0.1014 0.303632,-0.8994 z m -49.77063,-0.0246 c -1.652702,-1.93643 -3.202955,-5.69879 -3.757473,-9.11915 -0.634758,-3.9153 -0.356627,-8.4341 0.663824,-10.78521 0.319242,-0.73553 0.323716,-0.73863 0.560954,-0.38859 0.299445,0.44185 0.740475,0.4527 1.039627,0.0255 0.219876,-0.31392 0.246651,-0.28844 0.656504,0.62485 0.388731,0.8662 1.556912,2.20755 2.076106,2.38386 0.139537,0.0473 0.128624,0.27668 -0.04406,0.92553 -0.722919,2.71646 -0.957069,6.80653 -0.717188,12.52769 0.09904,2.36191 0.150799,4.32363 0.115038,4.35939 -0.03576,0.0358 -0.302763,-0.21353 -0.593339,-0.55398 z m 17.782852,0.14541 c -2.544886,-1.40311 -4.475796,-3.53053 -5.367461,-5.91371 -0.365627,-0.97724 -0.691762,-3.3749 -0.557111,-4.09576 0.081,-0.43358 0.161962,-0.50967 0.542328,-0.50967 0.466966,0 1.268386,-0.74902 1.614722,-1.50915 0.09341,-0.20501 0.21144,-0.37086 0.262286,-0.36854 0.05085,0.002 0.29243,0.45212 0.536857,0.99957 0.565681,1.26698 1.236229,2.08081 1.82012,2.20906 0.564974,0.12408 0.627535,0.37512 1.194155,4.79178 0.221217,1.72434 0.53535,3.52213 0.698074,3.99509 0.162724,0.47297 0.246734,0.85866 0.186689,0.85709 -0.06004,-0.001 -0.478842,-0.20665 -0.930659,-0.45576 z m 86.559443,-0.40393 c -0.11118,-0.25876 -0.37862,-0.93795 -0.59427,-1.5093 -0.21563,-0.57137 -0.62493,-1.42554 -0.90955,-1.89819 -0.49898,-0.82866 -0.52123,-0.93719 -0.62274,-3.03862 -0.19489,-4.03476 -0.80744,-7.97329 -1.885736,-12.12484 -0.203459,-0.78333 -0.352359,-1.42425 -0.3309,-1.42425 0.09845,0 1.356206,2.07168 1.856626,3.05809 1.93882,3.82175 2.82788,8.51119 2.73536,14.42791 -0.0406,2.59681 -0.0726,2.91923 -0.24879,2.5092 z M 10.257275,89.98101 c 0.05955,-1.82611 0.121288,-2.20928 0.509478,-3.16169 0.586194,-1.43821 0.842442,-2.44637 0.96547,-3.79844 l 0.10177,-1.11838 0.655945,0.80473 c 0.58724,0.72045 0.994757,1.0634 1.89702,1.59646 0.263552,0.15571 0.264763,0.22437 0.02286,1.29553 -0.487839,2.16022 -2.048984,4.91934 -3.379808,5.97337 -0.337737,0.26749 -0.66501,0.48634 -0.727281,0.48634 -0.06227,0 -0.08273,-0.93506 -0.04546,-2.07792 z m -81.602832,0.90175 c -0.205676,-5.63846 0.661439,-11.07525 2.388633,-14.97681 0.661894,-1.49516 1.644971,-3.16395 2.29644,-3.89824 l 0.506837,-0.57128 -0.24115,0.70572 c -0.411442,1.20412 -1.290136,4.70021 -1.635744,6.50824 -0.370455,1.93795 -0.90915,6.24306 -0.96816,7.73728 -0.02337,0.59279 -0.123139,1.05345 -0.251064,1.15961 -0.279491,0.23196 -0.57826,0.81421 -1.389627,2.70817 l -0.671834,1.56825 -0.03434,-0.94094 z m 56.518173,0.45702 c -1.176003,-0.92681 -2.573612,-3.38644 -3.066702,-5.39702 -0.398502,-1.62491 -0.441265,-2.03872 -0.210678,-2.03872 0.352532,0 1.652318,-1.01725 2.181706,-1.70746 l 0.508004,-0.66232 0.100927,1.38092 c 0.09917,1.35683 0.335551,2.42911 0.836734,3.79566 0.139116,0.37932 0.305302,1.1556 0.369303,1.72508 0.128546,1.14382 0.06013,3.31036 -0.104446,3.30763 -0.05761,-7e-4 -0.334298,-0.18264 -0.614856,-0.40377 z m 52.252577,-2.26052 c 0.290985,-8.75797 0.29526,-10.70796 0.02692,-12.2814 -0.144345,-0.84638 -0.439321,-2.00878 -0.655497,-2.58311 L 36.403563,73.17051 36.8296,72.38189 c 0.234318,-0.43375 0.543262,-1.00035 0.686546,-1.25911 0.516784,-0.93329 0.818926,-2.14847 0.808543,-3.25186 -0.009,-0.95693 0.01674,-1.06074 0.200732,-0.80913 0.348685,0.47686 0.951295,0.005 1.813502,-1.42176 1.287671,-2.12995 1.15566,-2.18705 1.471109,0.63619 0.852208,7.62713 0.257863,14.90619 -1.637821,20.0586 -0.491177,1.335 -2.111908,4.63091 -2.50631,5.09681 l -0.331893,0.39206 0.09118,-2.74443 z M -41.254548,90.603 c -1.089079,-1.66215 -2.540211,-5.3984 -3.116808,-8.02489 -1.084025,-4.93791 -1.189607,-11.30611 -0.285861,-17.24154 0.169365,-1.11231 0.307936,-2.05154 0.307936,-2.08717 0,-0.26337 0.404255,0.3152 0.940754,1.34643 0.349972,0.67269 0.85157,1.42844 1.114662,1.67945 l 0.47835,0.45639 0.287299,-0.35286 c 0.158015,-0.19407 0.311273,-0.35285 0.340574,-0.35285 0.0293,0 0.05328,0.72335 0.05328,1.60746 l 0,1.60745 0.822714,1.64667 0.822712,1.64666 -0.402232,0.99142 c -0.976298,2.40641 -1.19915,4.89994 -1.064192,11.90745 0.05856,3.04045 0.068,5.52807 0.02097,5.52807 -0.04702,0 -0.19109,-0.16117 -0.320157,-0.35814 z M 6.9325196,89.89548 c 0,-0.58613 0.14948,-1.76818 0.332181,-2.62682 0.241172,-1.13345 0.30915,-1.86977 0.248126,-2.6876 l -0.08405,-1.12644 0.8532409,-0.26837 c 1.060359,-0.33353 2.1498075,-1.26755 2.5599475,-2.19474 0.168959,-0.38197 0.357059,-0.69448 0.418002,-0.69448 0.179131,0 -0.06909,2.99113 -0.352807,4.2513 -0.302267,1.34261 -0.892603,2.72939 -1.6974635,3.98758 -0.599547,0.93725 -1.9136449,2.42523 -2.1418119,2.42523 -0.07445,0 -0.135364,-0.47954 -0.135364,-1.06566 z M -11.957118,89.75969 c -1.865667,-2.26183 -2.73164,-4.61172 -2.865875,-7.77678 -0.04664,-1.09974 -0.04346,-1.99952 0.0071,-1.99952 0.05054,0 0.240118,0.33521 0.421285,0.74492 0.181168,0.4097 0.519684,0.94557 0.752258,1.1908 0.453663,0.47839 1.554712,1.08851 2.279814,1.26333 0.344774,0.0831 0.41937,0.16799 0.329856,0.37529 -0.217959,0.50476 -0.260646,2.19014 -0.0768,3.03255 0.275534,1.2626 0.40924,4.21404 0.190906,4.21404 -0.09728,0 -0.564616,-0.47008 -1.038523,-1.04463 z m 25.781436,-6.61165 c -1.260617,-0.79977 -1.96893,-2.25786 -2.174264,-4.47582 -0.137182,-1.48179 -0.122736,-1.80363 0.161115,-3.58961 0.144341,-0.90821 0.213938,-1.05858 0.489962,-1.05858 0.176947,0 0.893892,-0.2415 1.593214,-0.53667 1.661754,-0.7014 2.527664,-0.84598 2.726554,-0.45527 0.08013,0.15743 0.161442,1.08185 0.180681,2.05429 0.03586,1.81242 0.16253,2.55249 0.508186,2.96898 0.129736,0.15632 0.198781,0.80578 0.202621,1.90591 0.0055,1.56689 -0.02097,1.71002 -0.432964,2.34409 -0.303034,0.46636 -0.658825,0.76962 -1.149982,0.98015 -0.949979,0.40721 -1.280607,0.38562 -2.105123,-0.13747 z m -33.463582,-0.30628 c -1.709779,-0.94451 -1.967522,-2.83091 -0.808378,-5.91647 0.130642,-0.34777 0.238723,-1.15916 0.24254,-1.82081 0.0038,-0.65643 0.05288,-1.52905 0.109089,-1.93917 l 0.102209,-0.74566 0.700336,0.096 c 0.385184,0.0528 1.238975,0.33747 1.897315,0.63258 0.65834,0.29513 1.372754,0.55998 1.587586,0.58858 0.349958,0.0465 0.412282,0.16622 0.598882,1.14976 0.12938,0.68193 0.180719,1.72152 0.135529,2.74443 -0.11621,2.6305 -0.949749,4.41629 -2.479381,5.31185 -0.745367,0.4364 -1.148124,0.41687 -2.08572,-0.10107 z M 7.0945016,81.76713 c -0.872195,-0.7339 -1.167919,-1.52112 -1.175041,-3.12794 -0.0056,-1.26511 0.0371,-1.48634 0.385758,-1.99845 0.215635,-0.31672 0.479277,-0.57634 0.585869,-0.57693 0.106593,-7e-4 0.378905,-0.28077 0.605135,-0.62262 0.6206709,-0.9379 1.4913539,-1.29954 2.8047714,-1.16498 l 1.048905,0.10747 -0.08708,0.48667 c -0.04789,0.26768 -0.198968,1.25291 -0.335729,2.18943 -0.136761,0.93651 -0.390478,2.06565 -0.563813,2.5092 -0.4371194,1.11855 -1.9381565,2.60994 -2.6268194,2.60994 -0.08392,0 -0.372804,-0.18531 -0.641963,-0.41179 z m 12.6561594,-0.0979 c -1.407333,-1.34243 -1.976933,-3.24986 -2.107397,-7.05712 -0.08744,-2.55171 -0.03827,-2.86937 0.379536,-2.45157 0.108751,0.10871 0.592406,0.15168 1.274637,0.11314 0.941747,-0.0532 1.203566,-0.13695 1.825966,-0.58392 0.399619,-0.28698 0.748921,-0.49669 0.776226,-0.46599 0.02731,0.0307 0.123735,0.98366 0.214291,2.1177 0.120316,1.50678 0.252157,2.24304 0.489702,2.73469 0.592652,1.22665 0.366258,3.53227 -0.460913,4.69392 -0.341307,0.47932 -1.486409,1.40884 -1.735599,1.40884 -0.06717,0 -0.36257,-0.22935 -0.656449,-0.50969 z m -31.990737,-0.10927 c -1.516433,-0.96168 -1.986107,-2.22817 -2.402158,-6.4774 l -0.103648,-1.05858 1.15525,7e-4 c 1.356362,7e-4 1.940449,0.2796 2.566388,1.22546 0.22238,0.33603 0.569596,0.68627 0.771594,0.77831 0.4380038,0.19956 0.8753578,1.35262 0.8753578,2.30781 0,1.35183 -0.7688718,3.01274 -1.6113828,3.4809 -0.466524,0.25925 -0.423223,0.26814 -1.251404,-0.25707 z m -12.461932,-0.30803 c -1.209033,-0.87581 -1.637383,-1.85078 -1.644742,-3.74357 -0.0035,-0.91575 0.07821,-1.39228 0.335917,-1.95777 0.234795,-0.51521 0.392341,-1.31915 0.507088,-2.58761 0.09156,-1.01212 0.192072,-1.93017 0.223363,-2.04012 0.03823,-0.13433 0.349279,-0.006 0.948124,0.39206 0.786416,0.52237 1.003527,0.59198 1.846128,0.59198 0.525192,0 1.09604,-0.0353 1.268548,-0.0784 0.30204,-0.0755 0.311857,-0.0116 0.265231,1.72508 -0.109943,4.09503 -1.042024,7.01032 -2.520623,7.88374 -0.575096,0.33973 -0.485511,0.35324 -1.229034,-0.18537 z m 50.257225,-1.86305 c -1.071609,-0.77379 -1.996769,-2.13662 -2.299686,-3.38762 -0.102175,-0.42197 -0.282958,-1.76282 -0.40174,-2.97968 -0.19441,-1.99161 -0.191361,-2.22811 0.03053,-2.36929 0.135574,-0.0862 0.53623,-0.38633 0.890346,-0.66683 0.972672,-0.7705 2.015622,-1.4503 2.225044,-1.4503 0.107662,0 0.265575,0.44837 0.372812,1.05858 0.681661,3.87876 0.981187,4.79434 1.791454,5.47615 0.457501,0.38496 0.488814,0.47851 0.488814,1.46041 0,0.90061 -0.06395,1.1414 -0.451762,1.70101 -0.386631,0.55792 -1.687226,1.60862 -1.966707,1.58883 -0.0499,-0.003 -0.355499,-0.1976 -0.679106,-0.43126 z m -55.868654,-0.48301 c -1.072197,-0.66592 -1.646663,-1.70556 -1.646663,-2.98008 0,-0.66212 0.08299,-0.87306 0.572651,-1.45566 0.823998,-0.9804 1.094655,-1.69687 1.567025,-4.14816 0.230934,-1.19839 0.441575,-2.20603 0.468089,-2.23921 0.12695,-0.15884 1.074855,0.40874 1.953699,1.16982 0.536683,0.46476 1.113446,0.88872 1.281695,0.94212 0.251109,0.0797 0.286937,0.18557 0.200006,0.59099 -0.05824,0.27163 -0.166661,1.12903 -0.240918,1.90531 -0.261541,2.73409 -0.634226,3.88921 -1.643965,5.09535 -0.621923,0.74289 -1.49382,1.41329 -1.836792,1.41231 -0.112394,-2.6e-4 -0.416065,-0.13208 -0.674827,-0.29279 z M 5.0305396,75.79358 c -1.215268,-1.27734 -3.029543,-4.43055 -3.905627,-6.78796 -0.56985804,-1.53341 -0.94377904,-2.7104 -0.88101304,-2.77316 0.02383,-0.0238 1.02690004,0.10342 2.22900804,0.28272 1.804077,0.26915 2.651086,0.31173 4.851675,0.24392 6.0368724,-0.18601 10.2040914,-1.93204 14.2818884,-5.98401 2.621119,-2.60452 5.00971,-6.180212 7.439855,-11.137369 1.980669,-4.0403 5.681986,-12.702464 6.020533,-14.089809 0.144053,-0.590326 0.508234,-1.562441 0.809287,-2.160255 1.065946,-2.116687 2.357763,-3.076203 3.923932,-2.914559 2.577822,0.266053 5.103551,3.098839 6.32067,7.089088 0.885091,2.901719 1.514461,8.070286 1.33674,10.977756 -0.29782,4.872237 -0.962256,8.933578 -2.270604,13.879018 -0.610362,2.30708 -2.215425,7.45389 -2.374012,7.61247 -0.04767,0.0477 -0.09566,-1.41629 -0.106661,-3.25323 -0.03295,-5.50425 -0.337223,-8.66369 -1.907417,-19.806512 -0.854688,-6.065257 -0.731966,-5.499049 -1.116493,-5.1513 -0.512579,0.46356 -0.839208,1.256511 -1.369279,3.324208 -0.273068,1.06519 -0.669111,2.277365 -0.880095,2.693721 -0.368907,0.727997 -0.374024,0.779945 -0.133553,1.355483 0.36462,0.872655 0.192141,1.907088 -0.623965,3.742195 -0.652442,1.467101 -0.694195,1.641627 -0.619037,2.587622 0.118087,1.486347 -0.147464,2.280703 -1.056976,3.161803 -0.49569,0.48021 -0.953874,0.7724 -1.318399,0.84078 -0.51841,0.0972 -0.558798,0.14595 -0.560224,0.67546 -0.0044,1.67144 -1.927154,3.65632 -4.193536,4.32922 -0.19407,0.0577 -0.352856,0.20868 -0.352856,0.33568 0,0.38115 -0.568609,1.36669 -1.044207,1.80987 -0.245099,0.22839 -1.186631,0.78375 -2.092295,1.23413 -0.905666,0.4504 -1.964233,1.11366 -2.352375,1.47392 -0.388143,0.36026 -1.023383,0.80834 -1.411647,0.99574 -0.82386,0.39761 -2.530613,0.67345 -3.424955,0.55349 -0.572717,-0.0768 -0.645125,-0.0444 -0.868999,0.38848 -0.309144,0.59782 -0.909961,0.82102 -2.62825,0.97639 -1.050704,0.095 -1.467515,0.20562 -1.855392,0.49239 -0.448917,0.33189 -0.720261,0.37958 -2.643904,0.46459 -1.1790075,0.052 -2.2847915,0.15088 -2.4572995,0.21953 -0.9361659,0.37259 -1.7994819,1.42053 -2.1037969,2.55374 -0.09349,0.34812 -0.111977,0.34155 -0.660721,-0.23525 z M -9.2963972,75.49852 c -0.357136,-0.93514 -1.0919498,-1.7636 -1.8830358,-2.12298 -0.472981,-0.21487 -1.020885,-0.28644 -2.212701,-0.28902 -1.631615,-0.003 -2.362364,-0.16134 -3.042284,-0.65692 -0.255056,-0.1859 -0.858586,-0.33274 -1.727086,-0.42019 -1.500907,-0.15112 -2.294206,-0.48329 -2.510046,-1.05099 -0.138094,-0.36322 -0.214672,-0.38456 -1.380138,-0.38456 -1.547605,0 -2.758634,-0.39668 -3.900572,-1.27768 -0.463511,-0.3576 -0.893397,-0.73801 -0.955299,-0.84537 -0.0619,-0.10735 -0.782978,-0.55304 -1.602389,-0.99042 -2.011682,-1.07377 -2.594531,-1.65673 -3.036704,-3.03732 -0.04754,-0.14841 -0.565794,-0.48695 -1.151682,-0.75229 -1.800033,-0.81522 -2.985643,-2.21367 -3.139349,-3.70293 -0.07753,-0.75119 -0.133899,-0.85877 -0.496519,-0.94759 -1.642796,-0.40242 -2.722316,-2.23885 -2.419907,-4.11663 0.143015,-0.888045 0.122532,-0.986814 -0.540796,-2.607779 -0.755044,-1.845079 -0.892264,-2.950873 -0.470977,-3.795368 0.196021,-0.392929 0.200189,-0.527154 0.02612,-0.841335 -0.33064,-0.596785 -0.662835,-1.676218 -0.993483,-3.228216 -0.422553,-1.983396 -1.174117,-3.638832 -1.502796,-3.310153 -0.150772,0.150772 -2.13274,12.66469 -2.578409,16.279771 -0.476311,3.86367 -0.785211,7.82652 -0.787448,10.10216 -0.0011,1.11411 -0.03523,1.99242 -0.07585,1.9518 -0.04062,-0.0406 -0.496409,-1.5368 -1.012856,-3.32482 -1.447859,-5.01275 -2.268682,-8.999463 -2.846629,-13.825947 -0.246058,-2.05487 -0.245353,-7.287965 0.0016,-9.174266 0.397505,-3.040716 1.323322,-6.555012 2.168985,-8.233317 1.052438,-2.088625 2.697405,-3.887336 4.168573,-4.558173 2.781144,-1.268171 5.110614,0.671765 6.132547,5.107061 0.129179,0.56065 0.526803,1.76036 0.883607,2.666026 0.356805,0.905664 1.107928,2.811089 1.669163,4.234276 3.042052,7.71409 5.158108,11.975716 7.649828,15.40636 1.346974,1.85453 4.121992,4.57961 5.806533,5.70203 2.462394,1.6407 5.383656,2.66476 8.702123,3.05056 1.865359,0.21685 5.7217452,0.12657 7.5627625,-0.17707 0.667523,-0.11005 1.25161,-0.16225 1.297966,-0.11589 0.10765,0.1077 -0.673198,2.22992 -1.345442,3.65682 -0.805704,1.71017 -1.9416333,3.61503 -2.9086883,4.8776 -1.2348744,1.61223 -1.2224394,1.60619 -1.5483654,0.75276 z m 39.2027832,0.009 c -0.356359,-0.12058 -0.87699,-0.49148 -1.207953,-0.86053 -0.928001,-1.03479 -1.334717,-2.40143 -1.61702,-5.43348 l -0.104772,-1.12533 0.477115,-0.24672 c 0.571926,-0.29576 1.2109,-1.09761 1.364258,-1.71203 0.09235,-0.36998 0.176966,-0.43304 0.498543,-0.37157 0.273396,0.0523 0.539042,-0.0591 0.903138,-0.37886 0.551384,-0.48412 0.707066,-0.39718 0.707066,0.39489 0,1.25154 1.318233,4.86383 2.037411,5.583 0.271238,0.27124 0.331115,0.46834 0.265369,0.8735 -0.137156,0.84519 -0.59723,1.66541 -1.368566,2.43988 -1.003896,1.00798 -1.200802,1.09233 -1.954585,0.83725 z m -64.488279,-0.99261 c -0.870799,-0.68833 -1.769309,-2.22914 -1.769309,-3.0341 0,-0.2682 0.189834,-0.69204 0.462903,-1.03353 0.692224,-0.86568 1.242159,-2.19388 1.685875,-4.07172 0.218646,-0.92532 0.42438,-1.77614 0.457184,-1.89072 0.03883,-0.13558 0.201459,-0.0398 0.465858,0.27445 0.273956,0.32558 0.547917,0.48276 0.841442,0.48276 0.372858,0 0.474777,0.10353 0.711209,0.72264 0.194564,0.50946 0.476515,0.86399 0.955747,1.20179 0.76088,0.53632 0.736768,0.33516 0.361478,3.01555 -0.400631,2.86139 -1.3846,4.46952 -2.974213,4.8609 -0.319725,0.0787 -0.570264,-0.0317 -1.198174,-0.52802 z M 65.685826,72.02661 C 64.486672,70.2892 64.145388,69.88409 63.356799,69.262 c -0.493683,-0.38943 -0.751378,-0.71214 -0.751378,-0.9409 0,-0.92105 -1.283589,-4.56307 -2.652093,-7.52498 -0.352681,-0.76331 -0.641231,-1.42026 -0.641231,-1.45989 0,-0.2323 0.438125,0.30932 1.435558,1.77464 1.121519,1.64763 2.469888,3.19022 2.788533,3.19022 0.217377,0 0.215996,-1.46394 -0.0021,-2.24947 -0.488249,-1.75834 0.669905,0.44094 1.412594,2.68246 0.77167,2.32902 1.83293,7.99112 1.55068,8.27337 -0.0437,0.0437 -0.40897,-0.39759 -0.81152,-0.98084 z m -31.174445,0.15494 c -1.231716,-1.48398 -2.182316,-3.75684 -2.788097,-6.6663 l -0.285969,-1.37345 0.597457,-0.33578 c 0.811532,-0.45611 1.534916,-1.51143 1.754885,-2.56014 0.124588,-0.59396 0.257454,-0.86651 0.423594,-0.8689 0.133138,-0.002 0.418498,-0.1415 0.634132,-0.31017 0.537963,-0.42079 0.626852,-0.39314 0.63019,0.19603 0.0048,0.83815 0.428354,2.98068 0.769682,3.89296 0.175494,0.46905 0.53217,1.08611 0.792615,1.37127 0.443856,0.48596 0.473539,0.5968 0.473539,1.76833 0,2.05273 -0.893398,4.09064 -2.127726,4.85349 -0.603611,0.37305 -0.592135,0.37262 -0.874302,0.0327 z M -68.97082,71.74926 c 0,-1.25592 0.895271,-5.57128 1.579558,-7.61373 0.547915,-1.63545 1.672478,-4.16228 1.796983,-4.03778 0.0443,0.0443 -0.02585,0.53182 -0.155836,1.08338 -0.288561,1.22413 -0.308603,2.02219 -0.05081,2.02219 0.317743,0 1.736765,-1.61084 2.785235,-3.16173 0.544588,-0.80553 1.074359,-1.53518 1.17728,-1.62144 0.102929,-0.0862 0.274965,-0.32166 0.382297,-0.52311 0.107324,-0.20146 0.226141,-0.33529 0.264029,-0.29741 0.03788,0.0379 -0.285107,0.78489 -0.717758,1.66 -1.457234,2.94747 -2.472723,5.57005 -3.003496,7.75682 -0.137036,0.56452 -0.311097,0.84188 -0.689812,1.09924 -0.561907,0.38181 -1.163314,1.06782 -2.407434,2.74605 -0.458203,0.61808 -0.861693,1.12378 -0.896667,1.12378 -0.03495,0 -0.06356,-0.10634 -0.06356,-0.23626 z m 30.188534,-0.56487 c -0.856533,-0.78954 -1.42607,-1.92767 -1.639502,-3.27632 -0.276799,-1.74904 -0.220672,-2.40137 0.243896,-2.83473 0.814314,-0.75958 1.44172,-2.40916 1.800559,-4.73404 l 0.187895,-1.21736 0.516591,0.39403 c 0.284126,0.21671 0.617327,0.39402 0.740449,0.39402 0.152591,0 0.254336,0.25736 0.319599,0.80839 0.114806,0.96935 0.696375,1.88122 1.613695,2.53015 l 0.646387,0.45728 -0.300598,1.19938 c -0.544091,2.17093 -1.231659,4.04888 -1.882498,5.14166 -0.672336,1.12887 -1.190686,1.78184 -1.414481,1.78184 -0.07315,0 -0.447541,-0.28993 -0.831992,-0.6443 z M 5.4989636,66.08217 c -0.335789,-0.0596 -0.504135,-0.27469 -0.889339,-1.13618 -1.361272,-3.04443 -1.711946,-5.53928 -1.109669,-7.894691 l 0.149513,-0.584722 0.470128,0.418886 c 0.611279,0.544647 1.339673,1.652097 2.356497,3.582807 1.021505,1.9396 1.9197429,3.34322 2.8542379,4.46012 0.427012,0.51036 0.6642131,0.92028 0.5809451,1.00394 -0.1505641,0.15128 -3.721217,0.27253 -4.412313,0.14984 z M -12.631409,65.84311 c -0.756364,-0.16937 -0.805385,-0.27266 -0.329667,-0.69458 0.624698,-0.55406 1.953262,-2.47986 3.4393158,-4.98541 1.357478,-2.28876 2.4282984,-3.703479 2.8032194,-3.703479 0.2515003,0 0.4006613,1.094789 0.3739143,2.744429 -0.02894,1.78448 -0.4889963,3.60922 -1.3871863,5.50197 -0.4965184,1.04632 -0.5701114,1.12581 -1.1275404,1.21793 -0.85062,0.14056 -2.9879098,0.0948 -3.7720558,-0.0808 z m 50.461216,-1.03254 c -1.098721,-1.67051 -1.496365,-2.99544 -1.478798,-4.92729 0.01367,-1.5045 0.01919,-1.52532 0.705713,-2.66602 0.661265,-1.098747 0.692266,-1.205284 0.699574,-2.404283 0.0049,-0.821156 0.09255,-1.417154 0.2534,-1.725085 0.436274,-0.83522 0.648494,-2.099072 0.549912,-3.274948 -0.08653,-1.03215 -0.0461,-1.243785 0.550579,-2.882861 0.354182,-0.972919 0.663426,-1.74948 0.68721,-1.725693 0.02379,0.02383 0.19218,1.38388 0.374216,3.022427 0.432752,3.89534 1.067994,8.501004 1.36264,9.879483 0.349133,1.63343 0.04301,3.40033 -0.922358,5.32364 -0.526992,1.04995 -1.622719,2.59603 -1.839828,2.59603 -0.07858,0 -0.502599,-0.54693 -0.94226,-1.2154 z M 10.260537,64.65371 C 9.5266655,63.80581 8.4750725,62.24575 6.4620446,59.01857 5.9876486,58.25804 5.3595456,57.3685 5.0662596,57.041823 l -0.533245,-0.593986 0.100815,-1.76524 c 0.05546,-0.970884 0.207858,-2.12567 0.338681,-2.566196 0.243687,-0.820595 1.115901,-2.259221 1.429317,-2.357506 0.105335,-0.03305 0.217757,0.27533 0.282354,0.774503 0.250301,1.934124 1.4181589,4.848934 2.7964459,6.979562 1.1073045,1.71171 3.4246565,4.30375 4.8873855,5.46671 l 1.337658,1.06351 -0.505158,0.30925 c -0.814721,0.49874 -2.894292,1.20303 -3.552242,1.20303 -0.544242,0 -0.688267,-0.0936 -1.387737,-0.90175 z m -52.208419,0.39011 c -1.430418,-1.5903 -2.428861,-4.1772 -2.420529,-6.27145 0.0018,-0.45261 0.142449,-1.49335 0.312549,-2.312763 0.407689,-1.963903 1.005212,-5.704804 1.446592,-9.056645 0.19593,-1.487875 0.398857,-2.705232 0.450951,-2.705232 0.0521,0 0.334483,0.723354 0.627529,1.607453 0.481874,1.453768 0.533968,1.787386 0.544882,3.489359 0.01005,1.56732 0.06753,2.002484 0.343821,2.603237 0.269896,0.586825 0.317511,0.923107 0.255365,1.803485 -0.07283,1.031656 -0.04597,1.1407 0.575457,2.336754 0.783595,1.508182 0.891952,2.157052 0.646229,3.869862 -0.201693,1.40589 -0.578048,2.37211 -1.457931,3.74295 -0.784499,1.22224 -0.936573,1.32474 -1.324915,0.89299 z m 25.748702,-0.0288 c -0.603776,-0.20654 -1.445146,-0.57042 -1.86971,-0.80862 l -0.771938,-0.43309 0.531196,-0.40276 c 4.426238,-3.35605 7.833914,-8.34245 8.7715368,-12.835272 0.201274,-0.964442 0.211627,-0.978663 0.513711,-0.705716 0.425585,0.384543 1.018594,1.596166 1.2190884,2.490821 0.09192,0.410196 0.166435,1.521061 0.165574,2.468596 -0.0016,1.681299 -0.01244,1.734416 -0.4536684,2.206351 -0.248653,0.26597 -0.804595,1.01286 -1.235427,1.65977 -0.430832,0.6469 -1.3362708,2.00726 -2.0120868,3.02302 -0.675818,1.01576 -1.610251,2.26841 -2.076519,2.78365 -0.982982,1.08623 -1.13522,1.1165 -2.781757,0.55325 z m 30.45047,-3.08938 c -0.963313,-0.97939 -2.174907,-2.37769 -2.692429,-3.10733 l -0.940952,-1.32664 0.0062,-1.96669 c 0.0054,-1.686358 0.05459,-2.067292 0.345581,-2.672407 0.392756,-0.816727 0.777106,-1.291158 1.251844,-1.54523 0.482582,-0.258266 0.513499,-0.237289 0.513499,0.34849 0,1.867146 1.021059,5.360597 2.229079,7.626567 0.43684,0.81941 0.997399,1.87571 1.245686,2.34732 0.24829,0.47162 0.520753,0.9268 0.605474,1.01152 0.264269,0.26427 0.171559,0.48381 -0.32924,0.77963 l -0.483276,0.28548 -1.75148,-1.78071 z m -33.963703,1.05847 -0.352993,-0.37575 0.883395,-1.46695 c 1.976115,-3.28151 3.018682,-5.858148 3.496622,-8.641701 0.144398,-0.840975 0.311809,-1.529042 0.372024,-1.529042 0.28425,0 1.085485,0.864617 1.39638,1.50684 0.424402,0.876702 0.587887,3.0469 0.322686,4.283491 -0.191368,0.892312 -1.294405,2.453132 -3.0183,4.270942 -0.969129,1.02192 -2.440416,2.32791 -2.622569,2.32791 -0.06834,0 -0.283098,-0.16909 -0.477245,-0.37574 z m 81.815232,-1.93647 c -0.131624,-0.15147 -0.895455,-1.26341 -1.697413,-2.47096 -1.741397,-2.622123 -2.997271,-4.174728 -4.042949,-4.998178 -0.75817,-0.597044 -0.806111,-0.689045 -2.901135,-5.567286 -1.421682,-3.310381 -2.450099,-5.977381 -3.091914,-8.018306 -0.528925,-1.681949 -1.131959,-3.582163 -1.340063,-4.222695 -0.208112,-0.640533 -0.350852,-1.19213 -0.317223,-1.225767 0.06146,-0.06149 1.887214,2.093576 3.26123,3.849516 1.900351,2.428564 4.777346,6.992094 6.207766,9.846863 1.615362,3.223854 3.527505,8.750366 4.107616,11.871943 0.2163,1.1639 0.178453,1.3542 -0.185915,0.93487 z M -64.736542,60.65873 c 0,-0.30023 0.539149,-2.90224 0.805095,-3.885535 1.600525,-5.917586 4.748302,-12.146746 8.915426,-17.642822 2.03396,-2.682628 4.335492,-5.364154 4.47999,-5.219657 0.0388,0.03881 -0.427505,1.51138 -1.036221,3.272402 -0.608732,1.761019 -1.251651,3.660569 -1.428722,4.22122 -0.177071,0.560642 -1.311922,3.170939 -2.521889,5.800639 l -2.199944,4.781282 -1.488598,1.408802 c -1.103738,1.044584 -1.84224,1.937024 -2.856522,3.452037 -1.718533,2.566902 -2.668615,3.923912 -2.668615,3.811632 z"
         style="fill:#ffffff;fill-opacity:1" />
    </g>
  </g>
</svg>
