<?xml version="1.0" encoding="UTF-8" standalone="no"?>
<!-- Created with Inkscape (http://www.inkscape.org/) -->

<svg
   xmlns:dc="http://purl.org/dc/elements/1.1/"
   xmlns:cc="http://creativecommons.org/ns#"
   xmlns:rdf="http://www.w3.org/1999/02/22-rdf-syntax-ns#"
   xmlns:svg="http://www.w3.org/2000/svg"
   xmlns="http://www.w3.org/2000/svg"
   xmlns:sodipodi="http://sodipodi.sourceforge.net/DTD/sodipodi-0.dtd"
   xmlns:inkscape="http://www.inkscape.org/namespaces/inkscape"
   width="238.31384"
   height="230.71431"
   viewBox="0 0 238.31385 230.71431"
   id="svg7223"
   version="1.1"
   inkscape:version="0.91 r13725"
   sodipodi:docname="betterangels-circle-logo-inverse.svg"
   inkscape:export-filename="/home/pnppl/Pictures/betterangels-circle-logo.svg.png"
   inkscape:export-xdpi="206.29828"
   inkscape:export-ydpi="206.29828">
  <defs
     id="defs7225" />
  <sodipodi:namedview
     id="base"
     pagecolor="#ffffff"
     bordercolor="#666666"
     borderopacity="1.0"
     inkscape:pageopacity="0.0"
     inkscape:pageshadow="2"
     inkscape:zoom="2.8"
     inkscape:cx="167.9577"
     inkscape:cy="127.11198"
     inkscape:document-units="px"
     inkscape:current-layer="layer1"
     showgrid="false"
     fit-margin-top="10"
     fit-margin-left="10"
     fit-margin-right="10"
     fit-margin-bottom="10"
     inkscape:window-width="1920"
     inkscape:window-height="1026"
     inkscape:window-x="0"
     inkscape:window-y="0"
     inkscape:window-maximized="1"
     showguides="true"
     units="px"
     borderlayer="true"
     inkscape:showpageshadow="false">
    <inkscape:grid
       type="xygrid"
       id="grid3334"
       originx="-16.686165"
       originy="-42.14285" />
  </sodipodi:namedview>
  <metadata
     id="metadata7228">
    <rdf:RDF>
      <cc:Work
         rdf:about="">
        <dc:format>image/svg+xml</dc:format>
        <dc:type
           rdf:resource="http://purl.org/dc/dcmitype/StillImage" />
        <dc:title></dc:title>
      </cc:Work>
    </rdf:RDF>
  </metadata>
  <g
     inkscape:groupmode="layer"
     id="layer2"
     inkscape:label="circle"
     transform="translate(-16.686164,-33.983635)" />
  <g
     inkscape:label="Layer 1"
     inkscape:groupmode="layer"
     id="layer1"
     transform="translate(120.57483,7.7961094)">
    <rect
       style="opacity:1;fill:#a589d1;fill-opacity:1;stroke:none;stroke-width:3;stroke-linejoin:miter;stroke-miterlimit:4;stroke-dasharray:none;stroke-dashoffset:0;stroke-opacity:0.48888891"
       id="rect4151"
       width="238.21431"
       height="230.71429"
       x="-120.57484"
       y="-7.7960787" />
    <ellipse
       style="fill:#ffffff;fill-opacity:1;fill-rule:evenodd;stroke:#000000;stroke-width:0;stroke-linecap:butt;stroke-linejoin:miter;stroke-miterlimit:4;stroke-dasharray:none;stroke-opacity:1"
       id="path3336"
       cx="-1.4179114"
       cy="107.56104"
       rx="109.15691"
       ry="105.35715"
       inkscape:export-xdpi="76.027115"
       inkscape:export-ydpi="76.027115" />
    <g
       id="g4642"
       transform="matrix(1.1785181,0,0,1.1785181,-4.1440282,-3.4371865)"
       style="fill:#a589d1;fill-opacity:1">
      <path
         inkscape:connector-curvature="0"
         d="m -19.303269,160.68178 c -4.677651,-2.43792 -9.832908,-6.53991 -13.974516,-11.11938 -4.718172,-5.21702 -8.91262,-12.25596 -11.858265,-19.90002 -1.116937,-2.89848 -2.164475,-6.15371 -2.075593,-6.44989 0.172554,-0.57499 0.105963,-3.97167 -0.151821,-7.74261 -0.155903,-2.28044 -0.273371,-4.60704 -0.261063,-5.17018 0.02223,-1.01845 0.02328,-1.02062 0.194907,-0.40778 1.112737,3.97321 3.001415,7.93187 4.960982,10.39814 0.618771,0.77878 0.797939,1.17864 1.3155,2.93581 1.180992,4.00951 3.340444,9.23697 5.518566,13.35893 3.619869,6.8504 10.056078,15.93416 16.759174,23.6531 0.476011,0.54816 0.812744,0.99645 0.748298,0.99623 -0.06438,8.2e-4 -0.593724,-0.24879 -1.176169,-0.55235 z m -16.884477,-7.94323 c -1.397883,-0.92514 -3.844159,-3.08048 -5.067786,-4.46508 -4.595475,-5.2 -7.305439,-10.59895 -8.58854,-17.1106 -0.338541,-1.71809 -0.620118,-6.74474 -0.392629,-7.00912 0.09052,-0.10517 0.595374,0.35185 1.424155,1.28919 1.097874,1.24168 1.346428,1.629 1.715036,2.67241 0.602473,1.70542 2.125713,5.37654 3.351812,8.07817 1.342658,2.95841 1.437017,3.14945 4.156425,8.41489 1.269147,2.45735 2.79624,5.41438 3.393552,6.57118 0.597311,1.15679 1.065153,2.12753 1.039647,2.15717 -0.02549,0.0297 -0.489759,-0.23956 -1.031672,-0.59821 z m 15.240588,-5.45809 c -4.118989,-1.83942 -8.337524,-4.94823 -11.241564,-8.28435 -1.494615,-1.71699 -3.390449,-4.46549 -4.314595,-6.25513 -1.352989,-2.6201 -3.07223,-7.07328 -3.599416,-9.32327 l -0.162963,-0.69546 0.471184,0.59372 c 1.117678,1.40838 2.95066,2.7557 3.171121,2.3309 0.300165,-0.57836 -0.35653,-7.57574 -0.922143,-9.82584 l -0.132485,-0.52705 0.38616,0.49196 c 0.217617,0.27723 0.440838,0.42841 0.511438,0.34635 0.06891,-0.08 0.102294,-1.48468 0.0742,-3.12135 -0.04814,-2.80451 0.0041,-3.92689 0.114281,-2.45716 0.02715,0.36209 0.23309,1.65 0.457636,2.86199 1.325255,7.15315 3.318837,12.83973 7.055896,20.12653 1.611599,3.14242 5.023303,8.40282 7.804125,12.03294 0.900482,1.1755 1.615833,2.16216 1.58967,2.19256 -0.02616,0.0303 -0.594308,-0.18888 -1.262544,-0.48731 z m -31.079589,-0.75147 c -2.16382,-3.50266 -3.605745,-9.35671 -4.389081,-17.81923 l -0.457238,-4.93977 0.449051,-0.77032 c 0.921934,-1.5815 1.441113,-3.49128 1.856672,-6.82963 0.113929,-0.9153 0.225873,-1.68594 0.248759,-1.71254 0.02287,-0.0266 0.120041,0.46943 0.21591,1.10226 0.189521,1.2511 0.858416,3.24997 1.367762,4.0873 0.17613,0.28954 0.568549,0.79088 0.87206,1.11409 l 0.55185,0.58768 0.204135,4.07359 c 0.250355,4.99574 0.123001,11.99708 -0.381008,20.94488 l -0.05337,0.94759 -0.485502,-0.7859 z m -7.286258,-11.99883 c -0.01643,-0.34474 -0.2958,-3.47304 -0.620876,-6.95174 -1.134543,-12.14049 -1.008074,-20.7239 0.430315,-29.205017 0.510258,-3.008593 1.246679,-5.974759 1.312914,-5.28823 0.223811,2.319588 1.731291,12.355227 2.008942,13.374177 0.04619,0.16953 0.262659,1.01555 0.481044,1.88004 l 0.397065,1.57182 -0.553826,2.29295 c -0.984976,4.07787 -1.643409,7.61215 -2.26316,12.14774 -0.430633,3.15159 -0.982275,8.96303 -0.926175,9.75705 0.02131,0.30558 -0.02277,0.66638 -0.09859,0.80181 -0.1022,0.18255 -0.145551,0.0841 -0.167645,-0.3806 z m 30.942609,-10.38031 c -3.263971,-3.77128 -5.969125,-9.67845 -7.467555,-16.30671 -0.605035,-2.67636 -1.8298,-11.507246 -2.072334,-14.942087 l -0.07184,-1.016825 0.877354,1.414551 c 0.482544,0.778012 1.059957,1.571685 1.283138,1.763732 l 0.405784,0.349173 0.234918,-0.608903 c 0.175883,-0.45587 0.216505,-1.183234 0.161644,-2.894303 l -0.07327,-2.2854 0.524547,1.22378 c 0.288499,0.67307 0.706124,1.45561 0.928053,1.738947 0.400102,0.51083 0.403783,0.536407 0.435922,3.029003 0.06559,5.086712 1.126265,11.396952 3.485069,20.733592 1.453083,5.75158 2.163813,8.6446 2.124457,8.64755 -0.02255,0.002 -0.371709,-0.37906 -0.775923,-0.8461 z m -10.550797,-2.28183 c -4.279965,-6.5595 -7.977631,-15.35165 -10.272303,-24.425074 -3.227793,-12.763026 -4.356655,-30.785733 -2.754998,-43.98498 0.329986,-2.719357 1.013685,-6.712778 1.541049,-9.001066 0.518746,-2.250914 1.842621,-6.92512 2.367405,-8.358633 0.545014,-1.488794 1.682294,-2.536289 2.40604,-2.216081 0.472701,0.20914 0.428183,0.778149 -0.13756,1.758238 -0.279237,0.483738 -0.880281,1.827465 -1.335677,2.986064 -2.586376,6.580189 -2.487229,13.690037 0.343118,24.606752 0.336897,1.299395 0.416833,1.897452 0.385032,2.880543 -0.02206,0.68237 -0.01146,2.618538 0.02357,4.302584 0.03504,1.684035 0.07454,3.730643 0.08777,4.547982 0.04133,2.552837 0.885724,13.093246 1.284122,16.029534 1.129391,8.323823 3.19684,16.742237 5.34728,21.773437 0.479892,1.12276 0.569514,1.58807 1.134654,5.89101 0.337482,2.56956 0.605872,4.68733 0.596421,4.70614 -0.0095,0.0189 -0.46662,-0.65458 -1.015929,-1.49645 z m -10.368746,0.70928 c -2.991571,-6.32176 -5.462544,-14.0779 -6.986451,-21.92964 -1.055864,-5.440268 -1.770929,-11.825433 -1.740175,-15.53861 0.09801,-11.830867 1.371968,-21.091869 3.99727,-29.058143 0.778642,-2.362725 0.987838,-2.867051 0.858812,-2.070471 -0.14082,0.869409 -0.433311,5.948672 -0.484378,8.411637 -0.177194,8.546001 0.779086,20.108645 2.53641,30.668236 0.323878,1.946199 0.6878,3.955721 0.808711,4.465627 0.426443,1.798449 0.721376,5.041164 0.980287,10.777804 0.143957,3.18957 0.382135,8.01941 0.529304,10.733 0.14716,2.71358 0.252989,4.95435 0.23515,4.97948 -0.0178,0.0251 -0.348543,-0.62239 -0.73494,-1.43892 z m 23.711435,-8.23001 c -4.081304,-6.98203 -6.095663,-12.38101 -6.835178,-18.319962 -0.284348,-2.28356 -0.306577,-2.27712 0.940999,-0.272613 0.86825,1.395036 2.029028,2.652595 2.23237,2.418493 0.06765,-0.07788 0.0079,-1.548874 -0.132708,-3.268812 l -0.255726,-3.127203 0.66826,1.970534 c 0.367541,1.083789 1.106265,2.96383 1.641608,4.177878 l 0.973353,2.207365 0.07874,2.43169 c 0.08597,2.65522 0.475651,5.23412 1.539056,10.18549 0.828414,3.8572 0.936898,4.4118 0.864061,4.41727 -0.03496,0.003 -0.806636,-1.26645 -1.714838,-2.82013 z m -12.670267,-2.43106 c -1.622574,-2.38448 -3.187816,-6.53272 -4.371351,-11.58505 -1.46092,-6.23635 -2.722109,-17.677613 -2.922916,-26.515924 -0.04718,-2.076336 -0.0058,-6.952813 0.05959,-7.028838 0.02703,-0.03141 0.370726,1.104379 0.763783,2.52394 0.940961,3.398269 1.570389,5.254667 2.19764,6.481555 l 0.513805,1.00498 -0.109561,1.412218 c -0.11135,1.435246 0.0294,2.841689 0.506536,5.061753 0.280594,1.305543 0.626605,2.332332 2.031272,6.027755 l 0.976275,2.568404 -0.133979,2.007761 c -0.11813,1.770271 -0.05435,3.010946 0.539185,10.488936 0.37024,4.66464 0.653572,8.48264 0.62965,8.48444 -0.02394,0.002 -0.329902,-0.41758 -0.679903,-0.93193 z m -24.498747,-4.9645 c -0.916551,-18.628958 0.578786,-32.349853 4.664186,-42.797704 1.065231,-2.724153 1.367801,-3.205359 1.046864,-1.664899 -0.484797,2.327 -1.090492,6.600151 -1.326976,9.361789 -0.378375,4.418598 -0.4275,7.100431 -0.206576,11.276353 l 0.203067,3.837771 -0.563405,2.558497 c -0.30987,1.407183 -0.714009,3.489797 -0.89808,4.628049 -0.18408,1.138263 -0.40998,2.472794 -0.502009,2.965656 -0.09203,0.492862 -0.255132,1.495858 -0.36247,2.228897 -1.148625,7.844711 -1.712583,11.524661 -1.776939,11.595051 -0.04247,0.0465 -0.167411,-1.74883 -0.27767,-3.98946 z m 44.125599,-1.8367 c -2.215458,-2.33024 -4.130264,-5.751076 -4.972865,-8.88409 -0.346943,-1.290027 -0.950038,-5.747578 -0.779363,-5.760377 0.04813,-0.0036 0.316247,0.48936 0.595838,1.095489 0.629201,1.364057 1.791814,3.233679 2.312571,3.718894 0.318288,0.296578 0.405739,0.544703 0.472783,1.34142 0.0836,0.993152 0.803545,3.163952 1.859317,5.606044 0.659234,1.52487 1.21734,3.13903 1.161688,3.35984 -0.02261,0.0897 -0.315105,-0.12501 -0.649969,-0.47722 z m -5.16154,-3.56626 c -0.402282,-0.52383 -1.723646,-2.757018 -2.425682,-4.099548 -1.658455,-3.17152 -3.019996,-6.856028 -3.611556,-9.773329 -0.558278,-2.753159 -0.56362,-6.46746 -0.01248,-8.681947 l 0.153095,-0.615121 0.27908,0.827176 c 0.61614,1.826217 1.642979,2.771023 3.20406,2.948098 l 0.938942,0.106502 -0.105565,1.118677 c -0.414994,4.397798 0.05178,9.38623 1.59009,16.993272 0.167997,0.83074 0.29294,1.51138 0.27766,1.51252 -0.01528,0.001 -0.144721,-0.15019 -0.287642,-0.3363 z m 10.945238,-1.36431 c -2.956488,-3.244189 -4.116568,-5.099564 -4.557158,-7.288525 -0.12443,-0.618216 -0.12593,-0.894828 -0.0049,-0.903905 0.09592,-0.0072 0.17949,0.05473 0.185704,0.137588 0.02322,0.30965 2.046177,2.00997 2.654615,2.231229 l 0.63226,0.229912 0.173249,1.191641 c 0.10206,0.701963 0.380951,1.660705 0.678716,2.3332 0.821697,1.855788 1.219187,2.89661 1.109354,2.90485 -0.05662,0.004 -0.448956,-0.37196 -0.871847,-0.83599 z m -5.983434,-2.222686 c -3.726171,-5.332694 -5.117472,-8.224937 -5.534392,-11.504883 -0.130976,-1.030441 -0.181712,-2.264482 -0.12702,-3.089974 0.087,-1.313123 0.113656,-1.390082 0.598273,-1.727277 0.278968,-0.194105 0.622357,-0.578732 0.76308,-0.854728 l 0.255867,-0.501799 0.154487,0.791553 c 0.220717,1.130951 0.936377,2.348411 1.59455,2.712591 l 0.547196,0.302778 0.118787,1.583992 c 0.154612,2.061701 0.749277,3.638485 1.879184,4.982762 0.216662,0.25777 0.403829,0.868172 0.591539,1.929146 0.434976,2.458565 0.829551,7.255523 0.597419,7.263023 -0.06472,0.0018 -0.71225,-0.847148 -1.438965,-1.887185 z m -11.829187,-2.279161 c -1.792885,-1.807414 -3.620155,-5.443308 -4.428903,-8.812622 -0.925776,-3.856868 -0.986351,-8.383814 -0.144579,-10.804653 0.263344,-0.757344 0.267573,-0.76077 0.530324,-0.429451 0.331649,0.41822 0.772255,0.396058 1.038623,-0.05232 0.195784,-0.329484 0.22439,-0.306078 0.701393,0.574005 0.452419,0.834705 1.717638,2.084939 2.248564,2.221929 0.142683,0.03673 0.148954,0.266287 0.02528,0.926233 -0.517751,2.762916 -0.44538,6.859043 0.221671,12.546244 0.275392,2.34789 0.473708,4.300247 0.440721,4.338581 -0.03298,0.03837 -0.317883,-0.190291 -0.633105,-0.508058 z m 17.743932,-1.184841 c -2.642688,-1.208868 -4.727285,-3.185933 -5.794673,-5.495759 -0.437683,-0.947161 -0.942208,-3.313718 -0.861841,-4.042629 0.04835,-0.438424 0.123394,-0.520355 0.502695,-0.5488 0.465658,-0.03492 1.20882,-0.841775 1.497342,-1.625677 0.07782,-0.211421 0.183115,-0.385633 0.233992,-0.387122 0.05086,-0.0018 0.325421,0.428985 0.610104,0.956624 0.658844,1.221129 1.388375,1.982535 1.980222,2.066761 0.572671,0.08148 0.65383,0.327141 1.549152,4.689061 0.349547,1.702968 0.797244,3.472233 0.994881,3.931699 0.197638,0.459477 0.310256,0.837805 0.250262,0.840729 -0.05995,0.0035 -0.492955,-0.170262 -0.962136,-0.384887 z m -53.092626,1.689303 c -0.626757,-5.60729 -0.168646,-11.093702 1.261943,-15.113501 0.548229,-1.540471 1.403757,-3.278105 1.99849,-4.059057 l 0.462696,-0.607583 -0.187699,0.721778 c -0.320243,1.231517 -0.93503,4.783528 -1.144462,6.612341 -0.224493,1.960227 -0.439733,6.293567 -0.386837,7.788016 0.02103,0.592877 -0.04402,1.059708 -0.163642,1.175138 -0.261362,0.252211 -0.515753,0.855173 -1.183213,2.804506 l -0.552675,1.6141 -0.10461,-0.935737 z m 56.3940927,-3.770823 c -1.2420197,-0.83627 -2.8196517,-3.184496 -3.4617167,-5.152572 -0.518901,-1.590559 -0.59249,-2.000013 -0.362549,-2.017256 0.351545,-0.02636 1.571619,-1.137966 2.047909,-1.865832 l 0.457052,-0.698456 0.203913,1.369506 c 0.200359,1.345615 0.516266,2.397215 1.1182396,3.722459 0.1670929,0.367854 0.3908656,1.129533 0.4972745,1.692632 0.2137236,1.131004 0.3075182,3.296594 0.1431988,3.306179 -0.057501,0.0036 -0.3470201,-0.157129 -0.6433292,-0.356659 z m -26.4082627,1.241569 c -1.210329,-1.576051 -2.936804,-5.19332 -3.708201,-7.769337 -1.450259,-4.843017 -2.031774,-11.185489 -1.574424,-17.171884 0.08571,-1.121861 0.153655,-2.068823 0.15099,-2.104354 -0.01969,-0.262632 0.426694,0.284087 1.038809,1.272308 0.399297,0.644635 0.956008,1.360758 1.237134,1.591391 l 0.511141,0.41934 0.260106,-0.373357 c 0.14306,-0.205344 0.284015,-0.37514 0.313234,-0.377331 0.02922,-0.0022 0.107224,0.71734 0.17334,1.598974 l 0.120209,1.602949 0.943552,1.580535 0.94355,1.580525 -0.326965,1.018723 c -0.793607,2.472682 -0.829363,4.975895 -0.170745,11.953691 0.285768,3.027557 0.481212,5.507505 0.434314,5.511022 -0.04689,0.0035 -0.202608,-0.146428 -0.346043,-0.333195 z m 29.1523287,-3.03188 c -2.0295879,-2.115977 -3.0688664,-4.394528 -3.4394167,-7.540687 -0.12875,-1.093172 -0.192867,-1.990671 -0.142448,-1.994452 0.0504,-0.0038 0.264513,0.316315 0.475812,0.71133 0.211299,0.395004 0.5889408,0.904059 0.8392024,1.13121 0.4881678,0.443124 1.63176,0.969197 2.3679051,1.089302 0.350023,0.05709 0.4307584,0.136158 0.3569974,0.349572 -0.1796015,0.519646 -0.096124,2.203496 0.1501963,3.029802 0.1590981,0.53371 0.5110389,1.548827 1.2089636,2.61323 0.9215901,1.405514 2.2070957,2.844293 2.0831999,2.853584 -1.7073694,-0.377144 -2.6555689,-1.110096 -3.900412,-2.242891 z m -8.1779747,-6.324069 c -1.775624,-0.814004 -2.173715,-2.675847 -1.248562,-5.839451 0.104269,-0.356566 0.15137,-1.173767 0.105696,-1.833849 -0.0453,-0.654876 -0.06161,-1.528723 -0.03623,-1.941898 l 0.04616,-0.751216 0.705554,0.04336 c 0.388054,0.02385 1.260742,0.243871 1.939308,0.488923 0.678567,0.245071 1.410787,0.455754 1.627156,0.468208 0.352456,0.0202 0.423558,0.134923 0.683187,1.101755 0.180014,0.670345 0.308952,1.703185 0.340385,2.72661 0.08083,2.631825 -0.61683,4.474948 -2.075206,5.48239 -0.710645,0.490918 -1.113735,0.501562 -2.087438,0.05519 z m 7.5711098,-1.065848 C -9.20158,82.303356 -9.8176954,80.949087 -10.61937,76.309686 l -0.199716,-1.155781 1.2606008,-0.09453 c 1.4800428,-0.111107 2.1401873,0.147476 2.9005739,1.136195 0.270145,0.351256 0.6776667,0.707845 0.9056069,0.792418 0.4942545,0.183368 1.0658224,1.415541 1.1439832,2.466152 0.1106168,1.486876 -0.5924247,3.377126 -1.4734169,3.961548 -0.4878308,0.323629 -0.4398557,0.329836 -1.3864967,-0.17953 z M -20.206811,83.095097 c -1.271143,-0.782943 -1.771204,-1.72315 -1.920089,-3.610089 -0.07197,-0.912924 -0.02613,-1.394231 0.188569,-1.977409 0.195609,-0.531326 0.292594,-1.344797 0.312161,-2.618286 0.01561,-1.016133 0.04719,-1.939129 0.07017,-2.051111 0.02808,-0.136813 0.347853,-0.0321 0.974789,0.320059 0.823278,0.462098 1.044986,0.515277 1.885228,0.452265 0.523721,-0.03928 1.090331,-0.117166 1.259133,-0.173045 0.295548,-0.09788 0.310116,-0.03489 0.393494,1.700414 0.196601,4.091786 -0.514858,7.068616 -1.924,8.050163 -0.54808,0.381786 -0.457736,0.388559 -1.239455,-0.09294 z m -5.77116,-1.919854 c -1.118994,-0.583874 -1.769598,-1.577643 -1.86491,-2.848594 -0.04952,-0.660266 0.01747,-0.876822 0.46219,-1.494409 0.748374,-1.039275 0.964694,-1.773979 1.252428,-4.25373 0.140669,-1.212304 0.275366,-2.232875 0.299325,-2.267945 0.114716,-0.167889 1.102412,0.327215 2.03571,1.020442 0.569936,0.423324 1.176789,0.802966 1.34856,0.843634 0.256366,0.0607 0.300011,0.163593 0.243642,0.574378 -0.03776,0.275225 -0.08176,1.138332 -0.09776,1.917992 -0.05635,2.745992 -0.341606,3.925748 -1.258319,5.204022 -0.564627,0.787318 -1.383948,1.521044 -1.726033,1.545715 -0.112099,0.0081 -0.424777,-0.100596 -0.694833,-0.241505 z m 20.7033801,-4.969514 c -0.426068,-0.905814 -1.2207784,-1.677003 -2.0365246,-1.976217 -0.4877251,-0.178898 -1.0394471,-0.209294 -2.2281188,-0.12274 -1.6272707,0.119025 -2.3678147,0.01578 -3.0828917,-0.427571 -0.268244,-0.166306 -0.881065,-0.267601 -1.753673,-0.289858 -1.508005,-0.03845 -2.323923,-0.31037 -2.581613,-0.86034 -0.164869,-0.351876 -0.242829,-0.367429 -1.405031,-0.280273 -1.543272,0.115734 -2.780575,-0.189272 -3.985198,-0.982408 -0.488956,-0.321936 -0.946086,-0.669133 -1.015843,-0.771564 -0.06976,-0.10242 -0.822143,-0.492938 -1.671968,-0.867816 -2.086348,-0.920325 -2.71116,-1.458066 -3.255339,-2.801723 -0.05851,-0.144439 -0.600625,-0.443275 -1.204715,-0.664058 -1.855957,-0.678327 -3.142827,-1.984198 -3.407473,-3.457793 -0.133488,-0.743289 -0.197745,-0.846352 -0.565991,-0.907806 -1.66829,-0.278441 -2.88212,-2.029 -2.720983,-3.924137 0.07621,-0.896253 0.04839,-0.993214 -0.734297,-2.560035 -0.890909,-1.783448 -1.110439,-2.875884 -0.753485,-3.749519 0.166088,-0.406488 0.160207,-0.540649 -0.03687,-0.840933 -0.374343,-0.570388 -0.786331,-1.621956 -1.232115,-3.144881 -0.569693,-1.946243 -1.44295,-3.54084 -1.746129,-3.188502 -0.139075,0.161625 -1.179673,12.788719 -1.353749,16.427005 -0.186043,3.888471 -0.197727,7.863325 -0.02978,10.13276 0.08222,1.111073 0.113867,1.989476 0.07032,1.952007 -0.04354,-0.03745 -0.609945,-1.495374 -1.258658,-3.239766 -1.81867,-4.890439 -2.935331,-8.804606 -3.872595,-13.574355 -0.399037,-2.030715 -0.789678,-7.24921 -0.684478,-9.148697 0.169,-3.061928 0.829417,-6.635618 1.547204,-8.372464 0.893299,-2.161481 2.399148,-4.07817 3.81603,-4.857146 2.67852,-1.4726 5.14654,0.287701 6.497293,4.634155 0.170744,0.549419 0.656972,1.716035 1.080505,2.592482 0.423533,0.876446 1.315045,2.720364 1.981138,4.097596 3.610412,7.464997 6.039237,11.556447 8.780532,14.791148 1.481888,1.748607 4.452924,4.258534 6.216685,5.251837 2.578195,1.451962 5.567858,2.254696 8.9058846,2.391253 1.8763523,0.07675 3.1968788,-0.112816 5.0100341,-0.553282 0.657424,-0.159661 1.2359719,-0.255394 1.285665,-0.21263 0.1154026,0.09935 -0.5045543,2.274019 -1.0682089,3.747196 -0.6755574,1.765633 0.852454,3.561253 -0.017475,4.892606 -1.1108503,1.700063 -1.0989018,1.69311 -1.4877366,0.866443 z m -25.2882501,0.910054 c -0.919836,-0.621282 -1.931055,-2.090585 -1.991252,-2.893291 -0.02006,-0.267449 0.13755,-0.704298 0.384317,-1.065253 0.625548,-0.915022 1.074617,-2.280628 1.376661,-4.186392 0.148836,-0.93908 0.290368,-1.802903 0.314512,-1.919615 0.02858,-0.138105 0.197918,-0.05475 0.485077,0.238843 0.297537,0.304181 0.582485,0.440434 0.875188,0.418483 0.371814,-0.02788 0.48119,0.06774 0.763258,0.667431 0.232118,0.493483 0.539792,0.825936 1.042944,1.126952 0.798856,0.477918 0.759769,0.279124 0.585975,2.980074 -0.185527,2.883338 -1.046481,4.560548 -2.602375,5.069707 -0.312944,0.10239 -0.571038,0.01103 -1.234305,-0.436939 z m -34.499456,-0.18622 c -0.09392,-1.252403 0.476131,-5.62263 1.005762,-7.710534 0.424078,-1.671845 1.35653,-4.275697 1.489997,-4.160856 0.04749,0.04086 0.01399,0.532264 -0.07438,1.092 -0.19621,1.242282 -0.156515,2.039606 0.100556,2.020327 0.316854,-0.02376 1.61144,-1.736209 2.540995,-3.361163 0.482823,-0.844 0.956546,-1.611224 1.052728,-1.70494 0.09619,-0.09366 0.250141,-0.341321 0.342107,-0.550234 0.09196,-0.208922 0.200434,-0.351262 0.241049,-0.316322 0.04061,0.03496 -0.225613,0.804013 -0.59161,1.709028 -1.232734,3.048192 -2.049257,5.739369 -2.415012,7.959708 -0.09444,0.573187 -0.247268,0.862787 -0.605677,1.147748 -0.531781,0.422762 -1.080202,1.151825 -2.195337,2.918394 -0.410698,0.650615 -0.775241,1.185073 -0.810117,1.187688 -0.03485,0.0026 -0.07133,-0.101289 -0.08105,-0.230845 z m 30.06176,-2.820859 c -0.913178,-0.723275 -1.566232,-1.815627 -1.879922,-3.14454 -0.406821,-1.723442 -0.399634,-2.378143 0.03122,-2.845031 0.755231,-0.81835 1.257521,-2.51023 1.441495,-4.855434 l 0.09633,-1.228003 0.544611,0.354295 c 0.299537,0.194855 0.645065,0.346751 0.767842,0.337544 0.152164,-0.01141 0.27287,0.23762 0.379157,0.782226 0.186975,0.95805 0.835107,1.823876 1.798387,2.402389 l 0.678774,0.407662 -0.210064,1.218501 c -0.38022,2.205539 -0.925425,4.129649 -1.492721,5.26804 -0.586034,1.175988 -1.054102,1.865893 -1.27727,1.882629 -0.07294,0.0055 -0.46797,-0.25565 -0.877845,-0.580278 z m 25.6782182,-7.281948 c -0.7669122,-0.112333 -0.8235202,-0.211668 -0.3806862,-0.667982 0.5815148,-0.599225 1.7623428,-2.618986 3.0568645,-5.22865 1.182518,-2.383867 2.1445439,-3.874703 2.5184151,-3.902741 0.250796,-0.01881 0.4814103,1.061762 0.5781022,2.708783 0.1045887,1.781647 -0.217721,3.635682 -0.9718516,5.5903 -0.4168818,1.080521 -0.4843243,1.165292 -1.0333035,1.29884 -0.8377268,0.203778 -2.9724539,0.317978 -3.767536,0.20151 z m -29.2941562,1.395303 c -1.545339,-1.478876 -2.734441,-3.983867 -2.882745,-6.072876 -0.03205,-0.451477 0.03037,-1.499821 0.13872,-2.32966 0.259682,-1.988892 0.575778,-5.764002 0.765264,-9.139465 0.08411,-1.498361 0.195436,-2.727484 0.247384,-2.73138 0.05195,-0.0039 0.387641,0.696315 0.745981,1.556024 0.589241,1.413661 0.666138,1.74245 0.804299,3.438841 0.12723,1.562179 0.217091,1.991826 0.537534,2.570235 0.313025,0.564999 0.385655,0.896778 0.389519,1.779339 0.0045,1.034213 0.03946,1.140943 0.748594,2.287176 0.894186,1.44536 1.050764,2.08431 0.933817,3.8107 -0.09599,1.417036 -0.399037,2.408695 -1.173942,3.841497 -0.6909,1.277484 -0.834883,1.391069 -1.254425,0.989569 z m 25.674449,-1.954268 c -0.617531,-0.16081 -1.483757,-0.460751 -1.924946,-0.666534 l -0.802164,-0.37415 0.49959,-0.441357 c 4.162871,-3.677657 7.1881099,-8.904928 7.7871233,-13.455288 0.1285872,-0.976793 0.1378477,-0.991748 0.4594975,-0.742156 0.4531503,0.35164 1.1351069,1.515524 1.4019443,2.39268 0.122338,0.402173 0.2797175,1.504355 0.3497178,2.449302 0.124136,1.67671 0.1172986,1.730489 -0.2874019,2.234099 -0.2280669,0.28382 -0.7265979,1.070193 -1.1078461,1.747511 -0.3812489,0.677307 -1.1824214,2.101568 -1.7803841,3.165023 -0.5979647,1.063455 -1.436105,2.382477 -1.8625368,2.931143 -0.898998,1.156698 -1.048546,1.198268 -2.732594,0.759727 z m -3.655272,-1.762495 -0.380104,-0.3483 0.771219,-1.528905 c 1.725183,-3.4201 2.572143,-6.067489 2.840584,-8.878989 0.0811,-0.849419 0.196591,-1.548078 0.256637,-1.552581 0.283454,-0.02126 1.147104,0.78102 1.505155,1.398196 0.488776,0.842509 0.814096,2.994404 0.642113,4.247365 -0.124103,0.904125 -1.10733,2.543062 -2.690458,4.484699 -0.889994,1.091532 -2.259496,2.503891 -2.441139,2.517513 -0.06815,0.0051 -0.29495,-0.147446 -0.504007,-0.338998 z m -45.071954,1.048142 c -0.02245,-0.299389 0.320603,-2.934432 0.512272,-3.934862 1.153512,-6.020707 3.826643,-12.467823 7.571089,-18.260136 1.827651,-2.827221 3.922208,-5.673352 4.077107,-5.540066 0.04159,0.0358 -0.313283,1.539118 -0.788601,3.34073 -0.475334,1.80161 -0.9744,3.74392 -1.109049,4.316243 -0.134649,0.572314 -1.071118,3.260169 -2.081042,5.97299 l -1.836228,4.932411 -1.379076,1.516178 c -1.022531,1.124199 -1.692226,2.069367 -2.590372,3.655988 -1.521762,2.68823 -2.367703,4.11249 -2.3761,4.000524 z"
         style="fill:#a589d1;fill-opacity:1"
         id="path3561" />
      <path
         inkscape:connector-curvature="0"
         id="path3840"
         style="fill:#a589d1;fill-opacity:1"
         d="m 23.929616,160.68178 c 4.677651,-2.43792 9.832908,-6.53991 13.974516,-11.11938 4.718172,-5.21702 8.91262,-12.25596 11.858265,-19.90002 1.116937,-2.89848 2.164475,-6.15371 2.075593,-6.44989 -0.172554,-0.57499 -0.105963,-3.97167 0.151821,-7.74261 0.155903,-2.28044 0.273371,-4.60704 0.261063,-5.17018 -0.02223,-1.01845 -0.02328,-1.02062 -0.194907,-0.40778 -1.112737,3.97321 -3.001415,7.93187 -4.960982,10.39814 -0.618771,0.77878 -0.797939,1.17864 -1.3155,2.93581 -1.180992,4.00951 -3.340444,9.23697 -5.518566,13.35893 -3.619869,6.8504 -10.056078,15.93416 -16.759174,23.6531 -0.476011,0.54816 -0.812744,0.99645 -0.748298,0.99623 0.06438,8.2e-4 0.593724,-0.24879 1.176169,-0.55235 z m 16.884477,-7.94323 c 1.397883,-0.92514 3.844159,-3.08048 5.067786,-4.46508 4.595475,-5.2 7.305439,-10.59895 8.58854,-17.1106 0.338541,-1.71809 0.620118,-6.74474 0.392629,-7.00912 -0.09052,-0.10517 -0.595374,0.35185 -1.424155,1.28919 -1.097874,1.24168 -1.346428,1.629 -1.715036,2.67241 -0.602473,1.70542 -2.125713,5.37654 -3.351812,8.07817 -1.342658,2.95841 -1.437017,3.14945 -4.156425,8.41489 -1.269147,2.45735 -2.79624,5.41438 -3.393552,6.57118 -0.597311,1.15679 -1.065153,2.12753 -1.039647,2.15717 0.02549,0.0297 0.489759,-0.23956 1.031672,-0.59821 z m -15.240588,-5.45809 c 4.118989,-1.83942 8.337524,-4.94823 11.241564,-8.28435 1.494615,-1.71699 3.390449,-4.46549 4.314595,-6.25513 1.352989,-2.6201 3.07223,-7.07328 3.599416,-9.32327 l 0.162963,-0.69546 -0.471184,0.59372 c -1.117678,1.40838 -2.95066,2.7557 -3.171121,2.3309 -0.300165,-0.57836 0.35653,-7.57574 0.922143,-9.82584 l 0.132485,-0.52705 -0.38616,0.49196 c -0.217617,0.27723 -0.440838,0.42841 -0.511438,0.34635 -0.06891,-0.08 -0.102294,-1.48468 -0.0742,-3.12135 0.04814,-2.80451 -0.0041,-3.92689 -0.114281,-2.45716 -0.02715,0.36209 -0.23309,1.65 -0.457636,2.86199 -1.325255,7.15315 -3.318837,12.83973 -7.055896,20.12653 -1.611599,3.14242 -5.023303,8.40282 -7.804125,12.03294 -0.900482,1.1755 -1.615833,2.16216 -1.58967,2.19256 0.02616,0.0303 0.594308,-0.18888 1.262544,-0.48731 z m 31.079589,-0.75147 c 2.16382,-3.50266 3.605745,-9.35671 4.389081,-17.81923 l 0.457238,-4.93977 -0.449051,-0.77032 c -0.921934,-1.5815 -1.441113,-3.49128 -1.856672,-6.82963 -0.113929,-0.9153 -0.225873,-1.68594 -0.248759,-1.71254 -0.02287,-0.0266 -0.120041,0.46943 -0.21591,1.10226 -0.189521,1.2511 -0.858416,3.24997 -1.367762,4.0873 -0.17613,0.28954 -0.568549,0.79088 -0.87206,1.11409 l -0.55185,0.58768 -0.204135,4.07359 c -0.250355,4.99574 -0.123001,11.99708 0.381008,20.94488 l 0.05337,0.94759 0.485502,-0.7859 z m 7.286258,-11.99883 c 0.01643,-0.34474 0.2958,-3.47304 0.620876,-6.95174 1.134543,-12.14049 1.008074,-20.7239 -0.430315,-29.205017 -0.510258,-3.008593 -1.246679,-5.974759 -1.312914,-5.28823 -0.223811,2.319588 -1.731291,12.355227 -2.008942,13.374177 -0.04619,0.16953 -0.262659,1.01555 -0.481044,1.88004 l -0.397065,1.57182 0.553826,2.29295 c 0.984976,4.07787 1.643409,7.61215 2.26316,12.14774 0.430633,3.15159 0.982275,8.96303 0.926175,9.75705 -0.02131,0.30558 0.02277,0.66638 0.09859,0.80181 0.1022,0.18255 0.145551,0.0841 0.167645,-0.3806 z M 32.996743,124.14985 c 3.263971,-3.77128 5.969125,-9.67845 7.467555,-16.30671 0.605035,-2.67636 1.8298,-11.507246 2.072334,-14.942087 l 0.07184,-1.016825 -0.877354,1.414551 c -0.482544,0.778012 -1.059957,1.571685 -1.283138,1.763732 l -0.405784,0.349173 -0.234918,-0.608903 c -0.175883,-0.45587 -0.216505,-1.183234 -0.161644,-2.894303 l 0.07327,-2.2854 -0.524547,1.22378 c -0.288499,0.67307 -0.706124,1.45561 -0.928053,1.738947 -0.400102,0.51083 -0.403783,0.536407 -0.435922,3.029003 -0.06559,5.086712 -1.126265,11.396952 -3.485069,20.733592 -1.453083,5.75158 -2.163813,8.6446 -2.124457,8.64755 0.02255,0.002 0.371709,-0.37906 0.775923,-0.8461 z m 10.550797,-2.28183 c 4.279965,-6.5595 7.977631,-15.35165 10.272303,-24.425074 3.227793,-12.763026 4.356655,-30.785733 2.754998,-43.98498 -0.329986,-2.719357 -1.013685,-6.712778 -1.541049,-9.001066 -0.518746,-2.250914 -1.842621,-6.92512 -2.367405,-8.358633 -0.545014,-1.488794 -1.682294,-2.536289 -2.40604,-2.216081 -0.472701,0.20914 -0.428183,0.778149 0.13756,1.758238 0.279237,0.483738 0.880281,1.827465 1.335677,2.986064 2.586376,6.580189 2.487229,13.690037 -0.343118,24.606752 -0.336897,1.299395 -0.416833,1.897452 -0.385032,2.880543 0.02206,0.68237 0.01146,2.618538 -0.02357,4.302584 -0.03504,1.684035 -0.07454,3.730643 -0.08777,4.547982 -0.04133,2.552837 -0.885724,13.093246 -1.284122,16.029534 -1.129391,8.323823 -3.19684,16.742237 -5.34728,21.773437 -0.479892,1.12276 -0.569514,1.58807 -1.134654,5.89101 -0.337482,2.56956 -0.605872,4.68733 -0.596421,4.70614 0.0095,0.0189 0.46662,-0.65458 1.015929,-1.49645 z m 10.368746,0.70928 c 2.991571,-6.32176 5.462544,-14.0779 6.986451,-21.92964 1.055864,-5.440268 1.770929,-11.825433 1.740175,-15.53861 C 62.544902,73.278183 61.270944,64.017181 58.645642,56.050907 57.867,53.688182 57.657804,53.183856 57.78683,53.980436 c 0.14082,0.869409 0.433311,5.948672 0.484378,8.411637 0.177194,8.546001 -0.779086,20.108645 -2.53641,30.668236 -0.323878,1.946199 -0.6878,3.955721 -0.808711,4.465627 -0.426443,1.798449 -0.721376,5.041164 -0.980287,10.777804 -0.143957,3.18957 -0.382135,8.01941 -0.529304,10.733 -0.14716,2.71358 -0.252989,4.95435 -0.23515,4.97948 0.0178,0.0251 0.348543,-0.62239 0.73494,-1.43892 z m -23.711435,-8.23001 c 4.081304,-6.98203 6.095663,-12.38101 6.835178,-18.319962 0.284348,-2.28356 0.306577,-2.27712 -0.940999,-0.272613 -0.86825,1.395036 -2.029028,2.652595 -2.23237,2.418493 -0.06765,-0.07788 -0.0079,-1.548874 0.132708,-3.268812 l 0.255726,-3.127203 -0.66826,1.970534 c -0.367541,1.083789 -1.106265,2.96383 -1.641608,4.177878 l -0.973353,2.207365 -0.07874,2.43169 c -0.08597,2.65522 -0.475651,5.23412 -1.539056,10.18549 -0.828414,3.8572 -0.936898,4.4118 -0.864061,4.41727 0.03496,0.003 0.806636,-1.26645 1.714838,-2.82013 z m 12.670267,-2.43106 c 1.622574,-2.38448 3.187816,-6.53272 4.371351,-11.58505 1.46092,-6.23635 2.722109,-17.677613 2.922916,-26.515924 0.04718,-2.076336 0.0058,-6.952813 -0.05959,-7.028838 -0.02703,-0.03141 -0.370726,1.104379 -0.763783,2.52394 -0.940961,3.398269 -1.570389,5.254667 -2.19764,6.481555 l -0.513805,1.00498 0.109561,1.412218 c 0.11135,1.435246 -0.0294,2.841689 -0.506536,5.061753 -0.280594,1.305543 -0.626605,2.332332 -2.031272,6.027755 l -0.976275,2.568404 0.133979,2.007761 c 0.11813,1.770271 0.05435,3.010946 -0.539185,10.488936 -0.37024,4.66464 -0.653572,8.48264 -0.62965,8.48444 0.02394,0.002 0.329902,-0.41758 0.679903,-0.93193 z m 24.498747,-4.9645 c 0.916551,-18.628958 -0.578786,-32.349853 -4.664186,-42.797704 -1.065231,-2.724153 -1.367801,-3.205359 -1.046864,-1.664899 0.484797,2.327 1.090492,6.600151 1.326976,9.361789 0.378375,4.418598 0.4275,7.100431 0.206576,11.276353 l -0.203067,3.837771 0.563405,2.558497 c 0.30987,1.407183 0.714009,3.489797 0.89808,4.628049 0.18408,1.138263 0.40998,2.472794 0.502009,2.965656 0.09203,0.492862 0.255132,1.495858 0.36247,2.228897 1.148625,7.844711 1.712583,11.524661 1.776939,11.595051 0.04247,0.0465 0.167411,-1.74883 0.27767,-3.98946 z m -44.125599,-1.8367 c 2.215458,-2.33024 4.130264,-5.751076 4.972865,-8.88409 0.346943,-1.290027 0.950038,-5.747578 0.779363,-5.760377 -0.04813,-0.0036 -0.316247,0.48936 -0.595838,1.095489 -0.629201,1.364057 -1.791814,3.233679 -2.312571,3.718894 -0.318288,0.296578 -0.405739,0.544703 -0.472783,1.34142 -0.0836,0.993152 -0.803545,3.163952 -1.859317,5.606044 -0.659234,1.52487 -1.21734,3.13903 -1.161688,3.35984 0.02261,0.0897 0.315105,-0.12501 0.649969,-0.47722 z m 5.16154,-3.56626 c 0.402282,-0.52383 1.723646,-2.757018 2.425682,-4.099548 1.658455,-3.17152 3.019996,-6.856028 3.611556,-9.773329 0.558278,-2.753159 0.56362,-6.46746 0.01248,-8.681947 l -0.153095,-0.615121 -0.27908,0.827176 c -0.61614,1.826217 -1.642979,2.771023 -3.20406,2.948098 l -0.938942,0.106502 0.105565,1.118677 c 0.414994,4.397798 -0.05178,9.38623 -1.59009,16.993272 -0.167997,0.83074 -0.29294,1.51138 -0.27766,1.51252 0.01528,0.001 0.144721,-0.15019 0.287642,-0.3363 z m -10.945238,-1.36431 c 2.956488,-3.244189 4.116568,-5.099564 4.557158,-7.288525 0.12443,-0.618216 0.12593,-0.894828 0.0049,-0.903905 -0.09592,-0.0072 -0.17949,0.05473 -0.185704,0.137588 -0.02322,0.30965 -2.046177,2.00997 -2.654615,2.231229 l -0.63226,0.229912 -0.173249,1.191641 c -0.10206,0.701963 -0.380951,1.660705 -0.678716,2.3332 -0.821697,1.855788 -1.219187,2.89661 -1.109354,2.90485 0.05662,0.004 0.448956,-0.37196 0.871847,-0.83599 z m 5.983434,-2.222686 c 3.726171,-5.332694 5.117472,-8.224937 5.534392,-11.504883 0.130976,-1.030441 0.181712,-2.264482 0.12702,-3.089974 -0.087,-1.313123 -0.113656,-1.390082 -0.598273,-1.727277 -0.278968,-0.194105 -0.622357,-0.578732 -0.76308,-0.854728 l -0.255867,-0.501799 -0.154487,0.791553 c -0.220717,1.130951 -0.936377,2.348411 -1.59455,2.712591 l -0.547196,0.302778 -0.118787,1.583992 c -0.154612,2.061701 -0.749277,3.638485 -1.879184,4.982762 -0.216662,0.25777 -0.403829,0.868172 -0.591539,1.929146 -0.434976,2.458565 -0.829551,7.255523 -0.597419,7.263023 0.06472,0.0018 0.71225,-0.847148 1.438965,-1.887185 z m 11.829187,-2.279161 c 1.792885,-1.807414 3.620155,-5.443308 4.428903,-8.812622 0.925776,-3.856868 0.986351,-8.383814 0.144579,-10.804653 -0.263344,-0.757344 -0.267573,-0.76077 -0.530324,-0.429451 -0.331649,0.41822 -0.772255,0.396058 -1.038623,-0.05232 -0.195784,-0.329484 -0.22439,-0.306078 -0.701393,0.574005 -0.452419,0.834705 -1.717638,2.084939 -2.248564,2.221929 -0.142683,0.03673 -0.148954,0.266287 -0.02528,0.926233 0.517751,2.762916 0.44538,6.859043 -0.221671,12.546244 -0.275392,2.34789 -0.473708,4.300247 -0.440721,4.338581 0.03298,0.03837 0.317883,-0.190291 0.633105,-0.508058 z M 17.533257,94.497772 c 2.642688,-1.208868 4.727285,-3.185933 5.794673,-5.495759 0.437683,-0.947161 0.942208,-3.313718 0.861841,-4.042629 -0.04835,-0.438424 -0.123394,-0.520355 -0.502695,-0.5488 -0.465658,-0.03492 -1.20882,-0.841775 -1.497342,-1.625677 -0.07782,-0.211421 -0.183115,-0.385633 -0.233992,-0.387122 -0.05086,-0.0018 -0.325421,0.428985 -0.610104,0.956624 -0.658844,1.221129 -1.388375,1.982535 -1.980222,2.066761 -0.572671,0.08148 -0.65383,0.327141 -1.549152,4.689061 -0.349547,1.702968 -0.797244,3.472233 -0.994881,3.931699 -0.197638,0.459477 -0.310256,0.837805 -0.250262,0.840729 0.05995,0.0035 0.492955,-0.170262 0.962136,-0.384887 z m 53.092626,1.689303 C 71.25264,90.579785 70.794529,85.093373 69.36394,81.073574 68.815711,79.533103 67.960183,77.795469 67.36545,77.014517 l -0.462696,-0.607583 0.187699,0.721778 c 0.320243,1.231517 0.93503,4.783528 1.144462,6.612341 0.224493,1.960227 0.439733,6.293567 0.386837,7.788016 -0.02103,0.592877 0.04402,1.059708 0.163642,1.175138 0.261362,0.252211 0.515753,0.855173 1.183213,2.804506 l 0.552675,1.6141 0.10461,-0.935737 z M 14.231791,92.416252 c 1.242019,-0.83627 2.819651,-3.184496 3.461716,-5.152572 0.518901,-1.590559 0.59249,-2.000013 0.362549,-2.017256 -0.351545,-0.02636 -1.571619,-1.137966 -2.047909,-1.865832 l -0.457052,-0.698456 -0.203913,1.369506 c -0.200359,1.345615 -0.516266,2.397215 -1.118239,3.722459 -0.167093,0.367854 -0.390866,1.129533 -0.497275,1.692632 -0.213723,1.131004 -0.307518,3.296594 -0.143199,3.306179 0.0575,0.0036 0.347021,-0.157129 0.64333,-0.356659 z m 26.408262,1.241569 c 1.210329,-1.576051 2.936804,-5.19332 3.708201,-7.769337 1.450259,-4.843017 2.031774,-11.185489 1.574424,-17.171884 -0.08571,-1.121861 -0.153655,-2.068823 -0.15099,-2.104354 0.01969,-0.262632 -0.426694,0.284087 -1.038809,1.272308 -0.399297,0.644635 -0.956008,1.360758 -1.237134,1.591391 l -0.511141,0.41934 -0.260106,-0.373357 c -0.14306,-0.205344 -0.284015,-0.37514 -0.313234,-0.377331 -0.02922,-0.0022 -0.107224,0.71734 -0.17334,1.598974 l -0.120209,1.602949 -0.943552,1.580535 -0.94355,1.580525 0.326965,1.018723 c 0.793607,2.472682 0.829363,4.975895 0.170745,11.953691 -0.285768,3.027557 -0.481212,5.507505 -0.434314,5.511022 0.04689,0.0035 0.202608,-0.146428 0.346043,-0.333195 z m -29.152328,-3.03188 c 2.029588,-2.115977 3.068866,-4.394528 3.439416,-7.540687 0.12875,-1.093172 0.192867,-1.990671 0.142448,-1.994452 -0.0504,-0.0038 -0.264513,0.316315 -0.475812,0.71133 -0.211299,0.395004 -0.58894,0.904059 -0.839202,1.13121 -0.488168,0.443124 -1.63176,0.969197 -2.367905,1.089302 -0.350023,0.05709 -0.430759,0.136158 -0.356998,0.349572 0.179602,0.519646 0.09612,2.203496 -0.150196,3.029802 -0.159098,0.53371 -0.511039,1.548827 -1.2089631,2.61323 -0.921591,1.405514 -2.207096,2.844293 -2.0832,2.853584 1.707369,-0.377144 2.6555691,-1.110096 3.9004121,-2.242891 z m 8.177974,-6.324069 c 1.775624,-0.814004 2.173715,-2.675847 1.248562,-5.839451 -0.104269,-0.356566 -0.15137,-1.173767 -0.105696,-1.833849 0.0453,-0.654876 0.06161,-1.528723 0.03623,-1.941898 l -0.04616,-0.751216 -0.705554,0.04336 c -0.388054,0.02385 -1.260742,0.243871 -1.939308,0.488923 -0.678567,0.245071 -1.410787,0.455754 -1.627156,0.468208 -0.352456,0.0202 -0.423558,0.134923 -0.683187,1.101755 -0.180014,0.670345 -0.308952,1.703185 -0.340385,2.72661 -0.08083,2.631825 0.61683,4.474948 2.075206,5.48239 0.710645,0.490918 1.113735,0.501562 2.087438,0.05519 z M 12.09459,83.236024 c 1.733337,-0.932668 2.349453,-2.286937 3.151127,-6.926338 l 0.199716,-1.155781 -1.2606,-0.09453 c -1.480043,-0.111107 -2.140188,0.147476 -2.900574,1.136195 -0.270145,0.351256 -0.677667,0.707845 -0.905607,0.792418 -0.4942551,0.183368 -1.0658231,1.415541 -1.1439831,2.466152 -0.110617,1.486876 0.592424,3.377126 1.4734161,3.961548 0.487831,0.323629 0.439856,0.329836 1.386497,-0.17953 z m 12.738568,-0.140927 c 1.271143,-0.782943 1.771204,-1.72315 1.920089,-3.610089 0.07197,-0.912924 0.02613,-1.394231 -0.188569,-1.977409 -0.195609,-0.531326 -0.292594,-1.344797 -0.312161,-2.618286 -0.01561,-1.016133 -0.04719,-1.939129 -0.07017,-2.051111 -0.02808,-0.136813 -0.347853,-0.0321 -0.974789,0.320059 -0.823278,0.462098 -1.044986,0.515277 -1.885228,0.452265 -0.523721,-0.03928 -1.090331,-0.117166 -1.259133,-0.173045 -0.295548,-0.09788 -0.310116,-0.03489 -0.393494,1.700414 -0.196601,4.091786 0.514858,7.068616 1.924,8.050163 0.54808,0.381786 0.457736,0.388559 1.239455,-0.09294 z m 5.77116,-1.919854 c 1.118994,-0.583874 1.769598,-1.577643 1.86491,-2.848594 0.04952,-0.660266 -0.01747,-0.876822 -0.46219,-1.494409 -0.748374,-1.039275 -0.964694,-1.773979 -1.252428,-4.25373 -0.140669,-1.212304 -0.275366,-2.232875 -0.299325,-2.267945 -0.114716,-0.167889 -1.102412,0.327215 -2.03571,1.020442 -0.569936,0.423324 -1.176789,0.802966 -1.34856,0.843634 -0.256366,0.0607 -0.300011,0.163593 -0.243642,0.574378 0.03776,0.275225 0.08176,1.138332 0.09776,1.917992 0.05635,2.745992 0.341606,3.925748 1.258319,5.204022 0.564627,0.787318 1.383948,1.521044 1.726033,1.545715 0.112099,0.0081 0.424777,-0.100596 0.694833,-0.241505 z M 9.9009379,76.205729 c 0.4260681,-0.905814 1.2207791,-1.677003 2.0365251,-1.976217 0.487725,-0.178898 1.039447,-0.209294 2.228119,-0.12274 1.62727,0.119025 2.367814,0.01578 3.082891,-0.427571 0.268244,-0.166306 0.881065,-0.267601 1.753673,-0.289858 1.508005,-0.03845 2.323923,-0.31037 2.581613,-0.86034 0.164869,-0.351876 0.242829,-0.367429 1.405031,-0.280273 1.543272,0.115734 2.780575,-0.189272 3.985198,-0.982408 0.488956,-0.321936 0.946086,-0.669133 1.015843,-0.771564 0.06976,-0.10242 0.822143,-0.492938 1.671968,-0.867816 2.086348,-0.920325 2.71116,-1.458066 3.255339,-2.801723 0.05851,-0.144439 0.600625,-0.443275 1.204715,-0.664058 1.855957,-0.678327 3.142827,-1.984198 3.407473,-3.457793 0.133488,-0.743289 0.197745,-0.846352 0.565991,-0.907806 1.66829,-0.278441 2.88212,-2.029 2.720983,-3.924137 -0.07621,-0.896253 -0.04839,-0.993214 0.734297,-2.560035 0.890909,-1.783448 1.110439,-2.875884 0.753485,-3.749519 -0.166088,-0.406488 -0.160207,-0.540649 0.03687,-0.840933 0.374343,-0.570388 0.786331,-1.621956 1.232115,-3.144881 0.569693,-1.946243 1.44295,-3.54084 1.746129,-3.188502 0.139075,0.161625 1.179673,12.788719 1.353749,16.427005 0.186043,3.888471 0.197727,7.863325 0.02978,10.13276 -0.08222,1.111073 -0.113867,1.989476 -0.07032,1.952007 0.04354,-0.03745 0.609945,-1.495374 1.258658,-3.239766 1.81867,-4.890439 2.935331,-8.804606 3.872595,-13.574355 0.399037,-2.030715 0.789678,-7.24921 0.684478,-9.148697 -0.169,-3.061928 -0.829417,-6.635618 -1.547204,-8.372464 -0.893299,-2.161481 -2.399148,-4.07817 -3.81603,-4.857146 -2.67852,-1.4726 -5.14654,0.287701 -6.497293,4.634155 -0.170744,0.549419 -0.656972,1.716035 -1.080505,2.592482 -0.423533,0.876446 -1.315045,2.720364 -1.981138,4.097596 -3.610412,7.464997 -6.039237,11.556447 -8.780532,14.791148 -1.481888,1.748607 -4.452924,4.258534 -6.216685,5.251837 -2.578195,1.451962 -5.567858,2.254696 -8.905884,2.391253 -1.876353,0.07675 -3.196879,-0.112816 -5.0100341,-0.553282 -0.657424,-0.159661 -1.235972,-0.255394 -1.285665,-0.21263 -0.115403,0.09935 0.504554,2.274019 1.068209,3.747196 0.675557,1.765633 -0.852454,3.561253 0.01748,4.892606 1.11085,1.700063 1.098901,1.69311 1.487736,0.866443 z m 25.2882501,0.910054 c 0.919836,-0.621282 1.931055,-2.090585 1.991252,-2.893291 0.02006,-0.267449 -0.13755,-0.704298 -0.384317,-1.065253 -0.625548,-0.915022 -1.074617,-2.280628 -1.376661,-4.186392 -0.148836,-0.93908 -0.290368,-1.802903 -0.314512,-1.919615 -0.02858,-0.138105 -0.197918,-0.05475 -0.485077,0.238843 -0.297537,0.304181 -0.582485,0.440434 -0.875188,0.418483 -0.371814,-0.02788 -0.48119,0.06774 -0.763258,0.667431 -0.232118,0.493483 -0.539792,0.825936 -1.042944,1.126952 -0.798856,0.477918 -0.759769,0.279124 -0.585975,2.980074 0.185527,2.883338 1.046481,4.560548 2.602375,5.069707 0.312944,0.10239 0.571038,0.01103 1.234305,-0.436939 z m 34.499456,-0.18622 c 0.09392,-1.252403 -0.476131,-5.62263 -1.005762,-7.710534 -0.424078,-1.671845 -1.35653,-4.275697 -1.489997,-4.160856 -0.04749,0.04086 -0.01399,0.532264 0.07438,1.092 0.19621,1.242282 0.156515,2.039606 -0.100556,2.020327 -0.316854,-0.02376 -1.61144,-1.736209 -2.540995,-3.361163 -0.482823,-0.844 -0.956546,-1.611224 -1.052728,-1.70494 -0.09619,-0.09366 -0.250141,-0.341321 -0.342107,-0.550234 -0.09196,-0.208922 -0.200434,-0.351262 -0.241049,-0.316322 -0.04061,0.03496 0.225613,0.804013 0.59161,1.709028 1.232734,3.048192 2.049257,5.739369 2.415012,7.959708 0.09444,0.573187 0.247268,0.862787 0.605677,1.147748 0.531781,0.422762 1.080202,1.151825 2.195337,2.918394 0.410698,0.650615 0.775241,1.185073 0.810117,1.187688 0.03485,0.0026 0.07133,-0.101289 0.08105,-0.230845 z m -30.06176,-2.820859 c 0.913178,-0.723275 1.566232,-1.815627 1.879922,-3.14454 0.406821,-1.723442 0.399634,-2.378143 -0.03122,-2.845031 -0.755231,-0.81835 -1.257521,-2.51023 -1.441495,-4.855434 l -0.09633,-1.228003 -0.544611,0.354295 c -0.299537,0.194855 -0.645065,0.346751 -0.767842,0.337544 -0.152164,-0.01141 -0.27287,0.23762 -0.379157,0.782226 -0.186975,0.95805 -0.835107,1.823876 -1.798387,2.402389 l -0.678774,0.407662 0.210064,1.218501 c 0.38022,2.205539 0.925425,4.129649 1.492721,5.26804 0.586034,1.175988 1.054102,1.865893 1.27727,1.882629 0.07294,0.0055 0.46797,-0.25565 0.877845,-0.580278 z M 13.948666,66.826756 c 0.766912,-0.112333 0.82352,-0.211668 0.380686,-0.667982 -0.581514,-0.599225 -1.762342,-2.618986 -3.056864,-5.22865 -1.182518,-2.383867 -2.1445441,-3.874703 -2.5184151,-3.902741 -0.250796,-0.01881 -0.481411,1.061762 -0.578102,2.708783 -0.104589,1.781647 0.217721,3.635682 0.971851,5.5903 0.416882,1.080521 0.484324,1.165292 1.0333041,1.29884 0.837726,0.203778 2.972454,0.317978 3.767536,0.20151 z m 29.294156,1.395303 c 1.545339,-1.478876 2.734441,-3.983867 2.882745,-6.072876 0.03205,-0.451477 -0.03037,-1.499821 -0.13872,-2.32966 -0.259682,-1.988892 -0.575778,-5.764002 -0.765264,-9.139465 -0.08411,-1.498361 -0.195436,-2.727484 -0.247384,-2.73138 -0.05195,-0.0039 -0.387641,0.696315 -0.745981,1.556024 -0.589241,1.413661 -0.666138,1.74245 -0.804299,3.438841 -0.12723,1.562179 -0.217091,1.991826 -0.537534,2.570235 -0.313025,0.564999 -0.385655,0.896778 -0.389519,1.779339 -0.0045,1.034213 -0.03946,1.140943 -0.748594,2.287176 -0.894186,1.44536 -1.050764,2.08431 -0.933817,3.8107 0.09599,1.417036 0.399037,2.408695 1.173942,3.841497 0.6909,1.277484 0.834883,1.391069 1.254425,0.989569 z M 17.568373,66.267791 c 0.617531,-0.16081 1.483757,-0.460751 1.924946,-0.666534 l 0.802164,-0.37415 -0.49959,-0.441357 c -4.162871,-3.677657 -7.18811,-8.904928 -7.787123,-13.455288 -0.128587,-0.976793 -0.137848,-0.991748 -0.459497,-0.742156 -0.453151,0.35164 -1.135107,1.515524 -1.401945,2.39268 -0.122338,0.402173 -0.2797171,1.504355 -0.3497181,2.449302 -0.124136,1.67671 -0.117298,1.730489 0.2874021,2.234099 0.228067,0.28382 0.726598,1.070193 1.107846,1.747511 0.381249,0.677307 1.182422,2.101568 1.780385,3.165023 0.597964,1.063455 1.436105,2.382477 1.862536,2.931143 0.898998,1.156698 1.048546,1.198268 2.732594,0.759727 z m 3.655272,-1.762495 0.380104,-0.3483 -0.771219,-1.528905 c -1.725183,-3.4201 -2.572143,-6.067489 -2.840584,-8.878989 -0.0811,-0.849419 -0.196591,-1.548078 -0.256637,-1.552581 -0.283454,-0.02126 -1.147104,0.78102 -1.505155,1.398196 -0.488776,0.842509 -0.814096,2.994404 -0.642113,4.247365 0.124103,0.904125 1.10733,2.543062 2.690458,4.484699 0.889994,1.091532 2.259496,2.503891 2.441139,2.517513 0.06815,0.0051 0.29495,-0.147446 0.504007,-0.338998 z m 45.071954,1.048142 c 0.02245,-0.299389 -0.320603,-2.934432 -0.512272,-3.934862 -1.153512,-6.020707 -3.826643,-12.467823 -7.571089,-18.260136 -1.827651,-2.827221 -3.922208,-5.673352 -4.077107,-5.540066 -0.04159,0.0358 0.313283,1.539118 0.788601,3.34073 0.475334,1.80161 0.9744,3.74392 1.109049,4.316243 0.134649,0.572314 1.071118,3.260169 2.081042,5.97299 l 1.836228,4.932411 1.379076,1.516178 c 1.022531,1.124199 1.692226,2.069367 2.590372,3.655988 1.521762,2.68823 2.367703,4.11249 2.3761,4.000524 z" />
    </g>
    <rect
       style="opacity:0;fill:#00ff00;fill-opacity:1;stroke:none;stroke-width:3;stroke-linejoin:miter;stroke-miterlimit:4;stroke-dasharray:none;stroke-dashoffset:0;stroke-opacity:0.48888891"
       id="rect4149"
       width="294.28571"
       height="267.85715"
       x="-139.14626"
       y="-16.367514" />
  </g>
</svg>
