<?xml version="1.0" encoding="UTF-8" standalone="no"?>
<!-- Created with Inkscape (http://www.inkscape.org/) -->

<svg
   xmlns:dc="http://purl.org/dc/elements/1.1/"
   xmlns:cc="http://creativecommons.org/ns#"
   xmlns:rdf="http://www.w3.org/1999/02/22-rdf-syntax-ns#"
   xmlns:svg="http://www.w3.org/2000/svg"
   xmlns="http://www.w3.org/2000/svg"
   xmlns:sodipodi="http://sodipodi.sourceforge.net/DTD/sodipodi-0.dtd"
   xmlns:inkscape="http://www.inkscape.org/namespaces/inkscape"
   width="373.85913"
   height="373.85919"
   viewBox="0 0 373.85913 373.8592"
   id="svg7619"
   version="1.1"
   inkscape:version="0.91 r13725"
   sodipodi:docname="buoy somefill.svg">
  <defs
     id="defs7621" />
  <sodipodi:namedview
     id="base"
     pagecolor="#ffffff"
     bordercolor="#666666"
     borderopacity="1.0"
     inkscape:pageopacity="0.0"
     inkscape:pageshadow="2"
     inkscape:zoom="0.35"
     inkscape:cx="-302.35617"
     inkscape:cy="-41.64185"
     inkscape:document-units="px"
     inkscape:current-layer="layer1"
     showgrid="false"
     units="px"
     fit-margin-top="10"
     fit-margin-left="10"
     fit-margin-right="10"
     fit-margin-bottom="10"
     inkscape:window-width="1920"
     inkscape:window-height="1026"
     inkscape:window-x="0"
     inkscape:window-y="0"
     inkscape:window-maximized="1" />
  <metadata
     id="metadata7624">
    <rdf:RDF>
      <cc:Work
         rdf:about="">
        <dc:format>image/svg+xml</dc:format>
        <dc:type
           rdf:resource="http://purl.org/dc/dcmitype/StillImage" />
        <dc:title></dc:title>
      </cc:Work>
    </rdf:RDF>
  </metadata>
  <g
     inkscape:label="Layer 1"
     inkscape:groupmode="layer"
     id="layer1"
     transform="translate(-190.21332,-116.86115)">
    <g
       id="g6986"
       transform="matrix(0.8743766,0,0,0.8743766,-1656.9792,1452.1235)">
      <g
         transform="translate(3219.1991,-317.6205)"
         id="g6949">
        <path
           transform="matrix(1.143672,0,0,1.143672,-4218.75,363.0865)"
           inkscape:connector-curvature="0"
           id="path6947"
           d="m 2895.2573,-1092.6856 c -8.4083,-1.1721 -21.8776,-5.3846 -29.4919,-9.2236 -20.7215,-10.4473 -38.7704,-29.8473 -46.5593,-50.0445 -5.8166,-15.0831 -6.4537,-18.7933 -6.3893,-37.2109 0.054,-15.5882 0.2866,-17.7408 2.7952,-25.9211 8.224,-26.8179 25.8541,-47.9539 49.9721,-59.91 27.506,-13.6355 58.6015,-13.6036 86.1732,0.088 21.1703,10.5131 39.5091,30.9722 47.4611,52.9485 22.4236,61.9708 -21.1972,127.0546 -86.9611,129.749 -5.775,0.2366 -13.425,0.023 -17,-0.4759 z"
           style="opacity:1;fill:#cf0023;fill-opacity:1;stroke:#ffffff;stroke-width:3;stroke-linejoin:miter;stroke-miterlimit:4;stroke-dasharray:none;stroke-dashoffset:0;stroke-opacity:1" />
        <path
           inkscape:connector-curvature="0"
           d="m -702.74153,-1059.2429 c 0,0 33.48539,-136.9867 -124.24843,-121.3806 m -252.65404,251.26236 c 0,0 -33.4854,136.98672 124.2484,121.38065 m 251.77287,-122.24765 c 0,0 33.48539,136.98672 -124.24841,121.38063 m -253.53526,-252.12939 c 0,0 -33.4854,-136.9867 124.24841,-121.3807"
           style="fill:#cf0023;fill-opacity:1;fill-rule:evenodd;stroke:#ffffff;stroke-width:5.24442434;stroke-linecap:butt;stroke-linejoin:miter;stroke-miterlimit:4;stroke-dasharray:none;stroke-opacity:1"
           id="path5559" />
        <path
           sodipodi:nodetypes="ccccccccccccccccccccccccsssssssssss"
           d="m -998.83641,-1031.5621 -83.95439,-29.756 z m -85.01709,98.83243 83.95438,-27.63055 z m 126.99429,126.46293 27.63055,-83.42302 z m 128.05699,0 -27.63055,-82.89167 z m 125.93157,-126.46293 -83.42302,-27.09919 z m -0.53135,-128.58843 -81.82896,29.2247 z m -123.80615,-124.8688 -29.75597,83.423 z m -129.1197,0.5313 27.47478,83.4093 z m 176.94181,189.42884 c 0,62.36025 -50.55302,112.91327 -112.91332,112.91327 -62.36031,0 -112.91334,-50.55301 -112.91334,-112.91327 0,-62.36044 50.55303,-112.91344 112.91334,-112.91344 62.36031,0 112.91332,50.553 112.91332,112.91344 z m 87.14252,0.53131 c 0,110.78125 -89.80594,200.58719 -200.58719,200.58719 -110.78129,0 -200.58719,-89.80594 -200.58719,-200.58719 0,-72.86365 38.8502,-136.65325 96.96611,-171.78435 30.24306,-18.2819 65.70342,-28.8029 103.62108,-28.8029 110.78125,0 200.58719,89.8059 200.58719,200.58725 z"
           style="fill:#cf0023;fill-opacity:1;fill-rule:evenodd;stroke:#ffffff;stroke-width:3.52439022;stroke-linecap:butt;stroke-linejoin:miter;stroke-miterlimit:4;stroke-dasharray:none;stroke-dashoffset:0;stroke-opacity:1"
           id="path5555"
           inkscape:connector-curvature="0" />
        <path
           inkscape:connector-curvature="0"
           d="m -970.41248,-813.11669 c 0.1667,-0.42566 7.92214,-18.166 17.23437,-39.42283 9.91165,-22.62512 17.15695,-38.44792 17.47553,-38.16424 1.17548,1.04753 15.0572,5.34873 21.11276,6.54269 24.13384,4.75839 50.11704,1.6654 71.09373,-8.46289 2.66506,-1.28679 5.1475,-2.37915 5.5165,-2.42747 0.60743,-0.0795 42.36187,71.62385 42.49911,72.9822 0.0321,0.31694 -3.96003,2.55332 -8.87123,4.96976 -50.7893,24.98983 -110.08061,27.2413 -162.79655,6.18191 -2.69026,-1.07475 -3.49278,-1.61539 -3.26422,-2.19913 z m 184.71905,-140.84702 c 1.7189,-3.83161 4.70261,-14.09762 5.91063,-20.33662 3.01175,-15.55472 2.50889,-33.73387 -1.37158,-49.58297 -1.44382,-5.897 -4.83279,-15.1962 -7.86355,-21.5773 -1.91917,-4.0408 -2.39951,-5.671 -1.80377,-6.1216 0.89777,-0.6791 72.36837,-39.1513 73.15818,-39.3807 1.13338,-0.3291 10.05389,19.4087 13.76971,30.4672 6.18923,18.4196 9.18267,34.457 10.1839,54.5601 1.01545,20.389 -0.49201,37.89434 -4.85312,56.35688 -2.58715,10.95254 -9.03893,30.08693 -10.16406,30.14411 -0.55849,0.0284 -77.1021,-31.50334 -77.62808,-31.97845 -0.18885,-0.17058 0.10891,-1.3184 0.66174,-2.55065 z m -181.57529,-179.24489 c -10.99355,-20.3814 -20.00258,-37.3386 -20.02006,-37.6827 -0.0733,-1.4421 22.3418,-11.2104 34.76494,-15.1503 35.72477,-11.3297 75.84044,-12.1323 112.25807,-2.246 8.79102,2.3865 24.40615,7.8853 25.69296,9.0476 0.43371,0.3918 -4.70251,12.6499 -16.05821,38.3247 -9.18275,20.7618 -16.85126,38.1514 -17.04115,38.6436 -0.24497,0.6349 -1.4046,0.5006 -3.99208,-0.4625 -16.41189,-6.1086 -35.58649,-8.4835 -52.86561,-6.5477 -12.29696,1.3776 -27.29055,5.804 -38.10109,11.2481 -1.96932,0.9918 -3.82109,1.821 -4.11504,1.8427 -0.29395,0.022 -9.52918,-16.6361 -20.52273,-37.0175 z M -1071.2,-907.38069 c -24.9113,-50.44306 -27.3838,-108.92531 -6.8326,-161.61071 l 2.487,-6.3756 38.5586,16.9901 c 21.2072,9.3446 38.87642,17.1823 39.26501,17.4171 0.42891,0.2592 -0.0952,2.6795 -1.33384,6.1605 -5.00927,14.0766 -7.03607,27.3668 -6.50807,42.67275 0.5849,16.95295 4.406,32.69164 11.16026,45.96852 1.0398,2.04391 1.65474,3.97722 1.36657,4.29623 -0.69096,0.76493 -73.11063,41.8903 -73.86843,41.94805 -0.3217,0.0245 -2.2543,-3.33559 -4.2945,-7.46694 z"
           style="opacity:1;fill:#ffffff;fill-opacity:1;stroke:#ffffff;stroke-width:1.76219511;stroke-linejoin:miter;stroke-miterlimit:4;stroke-dasharray:none;stroke-opacity:1"
           id="path5561" />
        <path
           inkscape:connector-curvature="0"
           d="m -940.37294,-902.45708 c -4.60079,-7.76248 -8.2396,-18.1188 -9.8638,-28.07314 -1.8503,-11.34017 -1.06599,-24.47758 2.21735,-37.14133 1.24496,-4.80184 2.95572,-9.98863 3.38964,-10.27707 0.84243,-0.56002 4.17839,-4.94968 7.60413,-10.00622 2.07168,-3.05792 4.24809,-6.13622 4.83647,-6.84075 1.06396,-1.27417 1.06777,-1.27587 0.70705,-0.32486 -2.33868,6.16559 -3.49024,13.08559 -3.02485,18.17666 0.14697,1.60761 0.0159,2.29501 -0.98267,5.04713 -2.27229,6.27976 -4.29847,15.08445 -5.17792,22.50063 -1.46169,12.32512 -0.9278,30.29828 1.39017,46.80016 0.16477,1.17188 0.21991,2.07791 0.12265,2.0134 -0.0978,-0.0634 -0.6453,-0.90806 -1.21817,-1.87461 z m -17.47386,-26.92909 c -1.17598,-2.56998 -2.69134,-7.75011 -3.13924,-10.73132 -1.68216,-11.19629 -0.3142,-20.76761 4.33532,-30.33388 1.22675,-2.52407 5.88698,-9.20259 6.49816,-9.31248 0.2432,-0.0435 0.54353,1.04089 0.84741,3.05952 0.40246,2.67404 0.38618,3.41464 -0.11261,5.10987 -0.81517,2.77084 -2.22796,8.96082 -3.10883,13.62082 -0.96457,5.10298 -1.01529,5.44014 -2.2339,14.85093 -0.56868,4.39199 -1.25315,9.67694 -1.52111,11.74435 -0.26787,2.06732 -0.54318,3.76893 -0.61167,3.78124 -0.0687,0.0123 -0.49761,-0.79275 -0.95353,-1.78905 z m 28.5488,8.23411 c -4.36225,-6.44425 -7.59062,-14.60335 -8.60292,-21.74237 -0.52102,-3.67421 -0.60464,-9.06103 -0.19029,-12.25945 0.60667,-4.68263 2.51459,-12.06334 3.99447,-15.45225 l 0.45736,-1.04754 0.11119,1.22506 c 0.26379,2.90592 1.67007,6.44666 2.43294,6.12557 1.03862,-0.43715 7.126,-9.99771 8.54792,-13.42513 l 0.33311,-0.80278 0.086,1.01081 c 0.0483,0.56965 0.23259,0.98442 0.42231,0.9503 0.18508,-0.0331 1.65666,-1.78785 3.27011,-3.89901 2.76469,-3.6176 3.97914,-4.99419 2.65869,-3.01368 -0.32534,0.48792 -1.31724,2.33232 -2.20421,4.09868 -5.23481,10.42477 -7.9761,19.64858 -9.70222,32.64593 -0.7444,5.60503 -0.91192,15.69904 -0.38321,23.08955 0.17129,2.39315 0.25379,4.36157 0.18359,4.37422 -0.0701,0.0123 -0.70682,-0.8324 -1.4145,-1.87791 z m -46.19704,-31.91512 c 0.27455,-6.61369 4.01876,-15.50118 11.39712,-27.05278 l 4.307,-6.74283 1.45785,-0.53318 c 2.99294,-1.09461 5.70961,-3.00828 9.71501,-6.84347 1.09815,-1.05152 2.04699,-1.92092 2.10845,-1.93202 0.0611,-0.011 -0.29353,0.71713 -0.78895,1.6181 -0.97946,1.78118 -1.99118,4.9917 -2.06876,6.56485 -0.0268,0.54397 0.0587,1.57295 0.19052,2.28668 l 0.23919,1.29773 -3.81304,5.38832 c -4.67609,6.60803 -11.95207,15.39266 -21.76641,26.27959 l -1.03934,1.15292 0.0615,-1.48391 z m 1.1311,-22.53035 c 0.32335,-0.45551 3.0668,-4.71528 6.09528,-9.46679 10.56885,-16.58288 19.44414,-27.38208 30.19808,-36.74418 3.81485,-3.3211 7.9285,-6.363 7.33396,-5.4232 -2.00871,3.1753 -9.88458,17.4505 -10.49595,19.0241 -0.10168,0.2618 -0.63064,1.5542 -1.17532,2.8721 l -0.9904,2.3962 -3.15662,2.3668 c -5.61394,4.20934 -10.18451,8.05196 -15.70971,13.20765 -3.83924,3.5824 -10.55236,10.42987 -11.27095,11.49638 -0.27795,0.40964 -0.70854,0.82556 -0.96018,0.92237 -0.3391,0.1304 -0.30502,-0.0381 0.13181,-0.65145 z m 57.25257,17.6099 c -1.11585,-8.05144 0.77352,-18.26486 5.21561,-28.194 1.7937,-4.00926 8.8778,-16.46947 11.98652,-21.08297 l 0.92031,-1.3658 -0.10538,2.6744 c -0.058,1.471 0.0106,3.0563 0.15437,3.5231 l 0.25981,0.8486 0.97101,-0.541 c 0.72696,-0.405 1.52423,-1.2904 3.17248,-3.5229 l 2.20153,-2.9819 -0.44561,2.0802 c -0.2451,1.1441 -0.40583,2.5561 -0.35718,3.1378 0.0876,1.0487 0.0675,1.085 -2.40598,4.28964 -5.04733,6.53982 -9.82913,15.6282 -15.71148,29.86171 -3.62375,8.76816 -5.47689,13.15842 -5.53936,13.12298 -0.0358,-0.0208 -0.17817,-0.85276 -0.31629,-1.84986 z m -13.63228,-13.41404 c 0.17005,-12.61242 3.47866,-27.48649 9.19169,-41.32123 8.03614,-19.4603 24.56484,-43.5245 40.33899,-58.7294 3.24988,-3.1325 8.32313,-7.5344 11.43505,-9.9217 3.06114,-2.3482 9.7904,-6.979 12.03366,-8.2808 2.32969,-1.3521 5.10777,-1.5525 5.8773,-0.424 0.50262,0.737 -0.14027,1.4169 -1.98671,2.1008 -0.91134,0.3376 -3.17891,1.4492 -5.03918,2.4703 -10.56515,5.7991 -17.60868,14.9474 -24.37723,31.6618 -0.80566,1.9895 -1.28996,2.8304 -2.33266,4.05 -0.72369,0.8465 -2.66655,3.3215 -4.31748,5.4999 -1.65084,2.1784 -3.66179,4.8227 -4.46877,5.8762 -2.52034,3.2905 -11.90875,17.5477 -14.2776,21.6819 -6.7152,11.7197 -12.10878,24.49434 -13.95,33.04023 -0.41091,1.90713 -0.74629,2.58865 -4.24586,8.62846 -2.08986,3.60679 -3.827,6.56966 -3.86029,6.58422 -0.0335,0.0159 -0.0428,-1.29798 -0.0201,-2.91668 z m -16.3835,-9.42565 c 1.8761,-11.02641 5.98996,-23.35998 11.63147,-34.87188 3.9089,-7.9762 9.28864,-16.8157 13.09191,-21.5113 12.11786,-14.961 23.41237,-25.4796 35.4387,-33.0041 3.56688,-2.2318 4.39319,-2.6653 3.39229,-1.7799 -1.09236,0.9663 -6.67316,7.14 -9.2422,10.224 -8.91406,10.7011 -19.16766,26.3708 -27.19617,41.5618 -1.47969,2.7998 -2.96299,5.72 -3.29616,6.4895 -1.17526,2.7139 -4.01048,7.1351 -9.42327,14.69474 -3.0095,4.2032 -7.53621,10.58796 -10.0593,14.18846 -2.52313,3.60052 -4.63031,6.55805 -4.68268,6.57223 -0.0525,0.0159 0.10309,-1.13934 0.34541,-2.56355 z m 44.15166,13.14381 c 0.89766,-12.95231 3.31655,-21.83078 8.20797,-30.12665 1.88075,-3.18984 1.84068,-3.20374 1.69755,0.5904 -0.0994,2.64046 0.38187,5.39738 0.92591,5.30198 0.181,-0.0321 1.57911,-1.9636 3.10672,-4.29288 l 2.77748,-4.23514 -0.98396,3.17384 c -0.54122,1.74561 -1.32723,4.87442 -1.74668,6.95295 l -0.76266,3.77915 -2.34127,3.17355 c -2.55653,3.46525 -4.57695,7.13587 -7.97979,14.49735 -2.65085,5.73478 -3.0481,6.54871 -3.16365,6.48315 -0.0555,-0.0315 0.0627,-2.41547 0.26236,-5.29772 z m -16.68359,-15.71526 c -0.0388,-4.65129 1.79302,-11.49043 5.11652,-19.10013 4.10232,-9.393 13.77243,-25.2119 22.4111,-36.6616 2.02942,-2.6898 7.02563,-8.8555 7.20137,-8.8871 0.0724,-0.012 -0.5572,1.7749 -1.39955,3.9733 -2.01653,5.2627 -2.94373,8.2526 -3.23731,10.439 l -0.24047,1.7909 -1.59435,1.6884 c -1.62034,1.7159 -2.83068,3.6463 -4.35586,6.9473 -0.89696,1.9412 -1.413,3.5928 -3.02955,9.6957 l -1.12354,4.2415 -2.23374,2.4221 c -1.96954,2.1356 -3.12846,3.7783 -9.79747,13.88767 -4.16002,6.30611 -7.59476,11.44796 -7.63276,11.42643 -0.0382,-0.0217 -0.076,-0.86016 -0.0842,-1.86347 z m -31.99173,-30.72243 c 17.46289,-24.6243 33.60418,-40.5991 50.3472,-49.8278 4.36557,-2.4063 5.30958,-2.7174 3.26616,-1.0764 -3.08681,2.479 -8.32525,7.3146 -11.47663,10.5941 -5.04217,5.2472 -7.82974,8.6118 -11.72086,14.1471 l -3.57602,5.087 -3.43979,2.6954 c -1.89189,1.4824 -4.60953,3.7306 -6.03929,4.996 -1.42972,1.2655 -3.12123,2.7391 -3.7589,3.2747 -0.63772,0.5357 -1.89891,1.6499 -2.80275,2.476 -9.67222,8.8407 -14.24749,12.9629 -14.4159,12.9884 -0.11138,0.016 1.51633,-2.3927 3.61685,-5.3544 z m 68.52651,41.61616 c -0.98968,-5.17281 -0.42173,-11.4343 1.475,-16.26137 0.78098,-1.98757 4.37967,-8.26205 4.6505,-8.10835 0.0761,0.043 -0.0159,0.938 -0.20815,1.98796 -0.42948,2.36296 -0.56443,5.90073 -0.26859,7.03706 0.1808,0.69455 0.062,1.0975 -0.64284,2.17834 -0.87845,1.34741 -1.98705,4.82753 -2.86266,8.98758 -0.54678,2.59757 -1.33663,5.20805 -1.64411,5.43366 -0.12494,0.0918 -0.34961,-0.47297 -0.4992,-1.25488 z m -4.19034,-9.68067 c -0.0777,-1.06747 0.1851,-5.22612 0.48281,-7.63423 0.70304,-5.68879 2.37369,-11.73486 4.43148,-16.03726 1.94196,-4.0604 5.69182,-8.7934 8.76503,-11.063 l 0.85363,-0.6305 -0.41523,1.3309 c -0.91673,2.9382 -0.32123,5.1636 1.8582,6.944 l 1.3109,1.0708 -1.29132,1.3188 c -5.07644,5.1842 -9.41819,11.99859 -14.79039,23.21332 -0.58663,1.22473 -1.08651,2.21554 -1.11076,2.20174 -0.0245,-0.0123 -0.0668,-0.33529 -0.0945,-0.71457 z m 17.91721,9.16613 c -1.18457,-7.07424 -1.06019,-10.59139 0.48883,-13.81642 0.4375,-0.91083 0.71508,-1.26441 0.90713,-1.15538 0.15225,0.0865 0.21585,0.24847 0.14133,0.36008 -0.2782,0.41726 1.05798,4.59657 1.75336,5.48427 l 0.7227,0.92244 -0.94391,1.68933 c -0.55604,0.99509 -1.10465,2.49321 -1.33514,3.64584 -0.6361,3.18059 -1.08862,4.90126 -1.2629,4.80237 -0.09,-0.0509 -0.30195,-0.92064 -0.47142,-1.93253 z m -6.7914,-8.78919 c -0.23447,-10.49929 0.5896,-15.56649 3.27818,-20.15663 0.84466,-1.442 2.01646,-3.0633 2.93434,-4.0595 1.45998,-1.5847 1.57813,-1.6561 2.65147,-1.6026 0.61786,0.031 1.52583,-0.1167 2.01768,-0.3278 l 0.89429,-0.3838 -0.56744,1.1614 c -0.81077,1.6594 -0.96125,3.9219 -0.3353,5.041 l 0.52045,0.9304 -1.42313,2.13454 c -1.85231,2.7782 -2.54916,5.37749 -2.20207,8.21403 0.0666,0.54391 -0.26826,1.50727 -1.05804,3.0447 -1.83027,3.56263 -6.08738,10.06134 -6.44569,9.83964 -0.0996,-0.0624 -0.21902,-1.78775 -0.26474,-3.83538 z m -15.5665,-14.68419 c -0.88013,-4.08644 0.0377,-10.53444 2.22459,-15.62864 2.50341,-5.8312 6.99202,-11.6536 10.71311,-13.8964 1.1641,-0.7017 1.17392,-0.7018 1.23572,-0.019 0.0781,0.8627 0.76604,1.2734 1.62217,0.968 0.62914,-0.2243 0.64868,-0.1661 0.47893,1.4293 -0.16107,1.5131 0.48573,4.3647 1.1493,5.0679 0.17837,0.1889 -0.0442,0.4873 -0.89891,1.2042 -3.57761,3.0009 -7.61245,8.2866 -12.35861,16.1899 -1.95935,3.26284 -3.63504,5.94537 -3.72366,5.9613 -0.0885,0.0159 -0.28776,-0.55886 -0.4425,-1.27736 z m 28.00758,16.16676 c -2.76966,-4.17103 -3.91896,-8.764 -3.1947,-12.76721 0.29699,-1.64158 1.9291,-5.15635 2.78795,-6.00405 0.51659,-0.5099 0.7129,-0.5394 1.31476,-0.198 0.73889,0.4194 2.67803,0.1327 3.90703,-0.5777 0.33151,-0.19164 0.66685,-0.30844 0.74524,-0.25964 0.0786,0.048 0.0578,0.87014 -0.046,1.82534 -0.24003,2.2106 0.092,3.90641 0.90087,4.60313 0.78275,0.67418 0.65684,1.06768 -2.40354,7.51153 -1.19486,2.51573 -2.3085,5.21365 -2.47474,5.99532 -0.16635,0.7817 -0.37886,1.37543 -0.47245,1.31941 -0.0939,-0.0555 -0.57257,-0.70777 -1.06429,-1.44831 z m -81.9254,-50.7358 c 4.72617,-7.7614 10.96916,-14.2883 17.19756,-17.9798 2.3869,-1.4147 5.43752,-2.7742 7.1262,-3.1757 l 1.3138,-0.3125 -1.01381,0.7317 c -1.72985,1.2485 -6.25246,5.1572 -8.41915,7.2764 -2.32243,2.2714 -7.03184,7.5725 -8.46391,9.5274 -0.5681,0.7756 -1.13866,1.305 -1.43617,1.3327 -0.65007,0.061 -1.64443,0.5748 -4.62516,2.3911 l -2.46806,1.5039 0.78872,-1.2952 z m 89.01947,51.37505 c -1.03044,-2.3016 -1.03826,-6.86197 -0.0176,-10.00654 0.8252,-2.54142 1.12828,-3.13584 1.49316,-2.92875 0.55779,0.31665 3.52585,0.11701 4.98187,-0.33496 l 1.39721,-0.43374 -1.07751,1.94627 c -1.05871,1.91232 -1.64535,3.5655 -2.07665,5.85192 -0.11982,0.63467 -0.55225,1.82706 -0.96118,2.64977 -0.8214,1.65247 -2.87064,4.50231 -3.12864,4.35079 -0.0907,-0.0525 -0.36536,-0.54563 -0.61117,-1.09476 z m -41.15566,-24.72525 c -0.23418,-3.2116 0.81713,-9.5355 2.25787,-13.5828 2.70877,-7.6088 8.24711,-16.261 14.9948,-23.425 1.2645,-1.3426 2.32525,-2.4802 2.35716,-2.5281 0.236,-0.3539 0.35727,0.7867 0.28224,2.6542 -0.0492,1.2183 0.0677,2.6843 0.25911,3.2579 l 0.348,1.0429 0.77073,-0.2161 c 0.42389,-0.119 0.80863,-0.1946 0.85502,-0.1681 0.0465,0.027 -0.56377,1.0198 -1.35591,2.2078 l -1.44013,2.1601 -0.17358,2.9515 -0.17358,2.9516 -1.52468,0.971 c -3.70077,2.3568 -6.28736,5.5073 -12.35199,15.0448 -2.63138,4.1383 -4.84515,7.4894 -4.91952,7.4473 -0.0745,-0.042 -0.15807,-0.3882 -0.18584,-0.7688 z m 47.11289,25.17991 c -0.9256,-4.71496 -0.1905,-8.65037 2.43274,-13.02401 0.91148,-1.51967 1.72267,-2.72585 1.80268,-2.68046 0.0797,0.0455 0.0795,0.66606 -8e-4,1.3794 -0.0803,0.71321 -0.025,1.73729 0.12336,2.27569 0.28923,1.05032 1.48479,2.85904 2.47547,3.74521 0.47111,0.42131 0.51307,0.60239 0.18585,0.80055 -0.79708,0.48249 -2.37463,2.7089 -2.83844,4.006 -0.69522,1.94409 -3.12792,6.03018 -3.47338,5.83412 -0.15384,-0.0874 -0.47225,-1.1388 -0.70734,-2.33646 z m -5.95753,-16.19557 c -1.8592,-2.8048 -0.57696,-5.57114 4.02163,-8.67634 0.51826,-0.35 1.41621,-1.3432 2.01506,-2.2289 0.59424,-0.8786 1.45352,-2.0071 1.90993,-2.5078 l 0.82978,-0.9101 1.02211,0.7579 c 0.56216,0.4169 1.65811,1.5663 2.43539,2.5541 0.77731,0.9879 1.67046,1.9854 1.98474,2.2168 0.51208,0.3768 0.50345,0.5936 -0.0826,2.0829 -0.40628,1.0325 -1.25639,2.47564 -2.24433,3.80954 -2.54065,3.43038 -5.45948,5.08138 -8.68218,4.91099 -1.57036,-0.0832 -2.19013,-0.471 -3.20964,-2.00908 z m 12.85615,4.92304 c -1.53787,-2.6542 -1.14636,-4.77793 2.00228,-10.86148 l 0.78442,-1.5156 1.82729,1.0386 c 2.14553,1.2191 2.81992,2.11844 2.96287,3.95164 0.0509,0.6513 0.28646,1.4338 0.52362,1.7389 0.51426,0.66153 0.1734,2.60375 -0.68254,3.88728 -1.21112,1.8165 -3.91579,3.35781 -5.66831,3.23024 -0.97044,-0.0705 -0.90989,-0.0187 -1.74975,-1.46939 z m -19.4426,-11.60648 c -1.12838,-2.2627 -0.93267,-3.9575 0.75149,-6.5076 0.81516,-1.2335 1.37115,-1.8006 2.28552,-2.329 0.83309,-0.4815 1.80269,-1.4203 3.12065,-3.0217 1.05166,-1.2778 2.0332,-2.4212 2.18121,-2.5408 0.18078,-0.1459 0.55805,0.3056 1.149,1.3784 0.77632,1.4082 1.0575,1.6967 2.39076,2.4535 0.83098,0.4717 1.76589,0.937 2.07743,1.034 0.54561,0.17 0.50388,0.2645 -1.12581,2.5563 -3.84282,5.4039 -7.92955,8.4842 -11.05165,8.3299 -1.21432,-0.06 -1.08468,0.038 -1.7786,-1.353 z m -6.77706,-8.1923 c -1.09997,-1.8578 -1.07748,-3.7708 0.0645,-5.4834 0.59324,-0.8897 0.91354,-1.0987 2.21029,-1.4417 2.18216,-0.5774 3.25232,-1.2971 6.19591,-4.1667 1.43908,-1.403 2.67512,-2.5678 2.7468,-2.5886 0.34321,-0.099 1.3346,1.5147 2.04329,3.3267 0.43281,1.1065 0.96561,2.1942 1.18396,2.4171 0.32594,0.3326 0.28779,0.507 -0.21289,0.9737 -0.33552,0.3127 -1.27524,1.3675 -2.08822,2.3439 -2.86337,3.4391 -4.48795,4.6565 -7.16624,5.3704 -1.64968,0.4397 -3.6299,0.5574 -4.1717,0.2481 -0.17761,-0.101 -0.54003,-0.5512 -0.80548,-0.9995 z m 36.30802,14.29754 c 0.27271,-1.5774 -0.14785,-3.3506 -1.0775,-4.54404 -0.5559,-0.7135 -1.35876,-1.3018 -3.24226,-2.3757 -2.57899,-1.4694 -3.59342,-2.3385 -4.22523,-3.6151 -0.23704,-0.4788 -1.06042,-1.2182 -2.35636,-2.1158 -2.2395,-1.5511 -3.1971,-2.7099 -3.03,-3.6666 0.10678,-0.6121 0.005,-0.7096 -1.83926,-1.7563 -2.44878,-1.39 -4.00961,-3.0107 -5.02723,-5.2201 -0.41298,-0.8968 -0.7524,-1.7941 -0.7542,-1.994 -10e-4,-0.1998 -0.74341,-1.4463 -1.64806,-2.77 -2.2211,-3.2496 -2.62107,-4.5565 -2.08383,-6.8088 0.0578,-0.2421 -0.45896,-1.1625 -1.14831,-2.0452 -2.11781,-2.7121 -2.7409,-5.6562 -1.64984,-7.7954 0.55032,-1.0791 0.55747,-1.2742 0.0634,-1.7193 -2.23889,-2.0162 -2.30171,-5.4534 -0.14098,-7.7051 1.02192,-1.0648 1.07801,-1.216 1.48065,-3.9899 0.45838,-3.1575 1.23195,-4.7666 2.65514,-5.523 0.66223,-0.352 0.78905,-0.5286 0.79508,-1.1071 0.0106,-1.0989 0.45296,-2.8478 1.32026,-5.2302 1.10833,-3.0447 1.40228,-5.9442 0.58774,-5.7978 -0.37364,0.067 -14.7212,15.1027 -18.6652,19.5602 -4.21525,4.764 -8.25439,9.8117 -10.29676,12.8676 -0.99985,1.4961 -1.84075,2.6457 -1.86865,2.5546 -0.0278,-0.091 0.59136,-2.5109 1.37615,-5.3774 2.20003,-8.0363 4.47302,-14.1306 7.88273,-21.1353 1.45162,-2.9822 6.14121,-10.0136 8.22201,-12.3264 3.35325,-3.729 7.96669,-7.6198 10.80841,-9.1155 3.53656,-1.8614 7.75089,-2.801 10.67973,-2.3811 5.53676,0.7937 7.48469,5.4927 5.128,12.3705 -0.2979,0.8693 -0.74356,2.8386 -0.99039,4.376 -0.24683,1.5374 -0.76546,4.7725 -1.15247,7.189 -2.09779,13.098 -2.56763,20.725 -1.69855,27.5728 0.46982,3.7018 2.41927,9.856 4.07915,12.8772 2.42631,4.4162 6.13115,8.416 11.03633,11.9149 2.75732,1.9667 8.94016,5.3089 12.12524,6.5544 1.15478,0.4516 2.12581,0.9061 2.15756,1.0101 0.0737,0.2413 -3.06301,2.3917 -5.40509,3.70544 -2.80704,1.5744 -6.31104,3.1138 -8.97238,3.94187 -3.39835,1.05737 -3.37328,1.0604 -3.1244,-0.37907 z m -39.1281,-24.03154 c -0.76116,-1.707 -0.80243,-4.5845 -0.0812,-5.6661 0.24031,-0.3604 0.92043,-0.7595 1.65847,-0.9731 1.87087,-0.5416 3.93099,-1.8324 6.31548,-3.9573 1.17496,-1.047 2.26278,-2.0055 2.41735,-2.13 0.18284,-0.1473 0.35441,0.1274 0.49124,0.7872 0.14186,0.6835 0.43444,1.1408 0.8989,1.4044 0.58998,0.3349 0.65846,0.5656 0.47792,1.6098 -0.14855,0.8594 -0.0203,1.589 0.43558,2.4734 0.72342,1.404 0.86554,1.112 -2.12977,4.3767 -3.19747,3.4852 -6.19515,4.7624 -9.06105,3.8606 -0.57643,-0.1814 -0.8739,-0.5547 -1.42283,-1.7856 z m -51.93593,-34.6022 c 1.12524,-1.6877 6.40803,-6.6824 9.32064,-8.8123 2.33225,-1.7056 6.37548,-4.091 6.46095,-3.8119 0.0303,0.099 -0.51747,0.6914 -1.21722,1.3159 -1.5533,1.3857 -2.30003,2.4401 -1.89214,2.6716 0.50279,0.2854 4.19129,-0.6047 7.23977,-1.747 1.5834,-0.5933 3.07536,-1.098 3.3155,-1.1215 0.24008,-0.023 0.72324,-0.1852 1.0736,-0.3595 0.35027,-0.1743 0.6582,-0.2475 0.68419,-0.1625 0.0261,0.085 -1.15431,0.7986 -2.62294,1.586 -4.94647,2.6518 -8.90293,5.2639 -11.70193,7.7256 -0.7226,0.6355 -1.24649,0.8519 -2.07631,0.8576 -1.23117,0.01 -2.79741,0.3901 -6.26957,1.5278 -1.27875,0.419 -2.37027,0.7362 -2.42564,0.7048 -0.0552,-0.031 -0.004,-0.2 0.11119,-0.3746 z m 48.27356,26.3543 c -0.64794,-1.8303 -0.52945,-3.8711 0.34112,-5.8751 1.12903,-2.5988 1.80227,-3.425 2.92562,-3.5901 1.96899,-0.2893 4.43967,-1.9424 7.09033,-4.7442 l 1.38799,-1.4671 0.46438,0.9935 c 0.25539,0.5464 0.6238,1.0839 0.81861,1.1945 0.24144,0.1371 0.17181,0.5742 -0.21855,1.3733 -0.6868,1.4057 -0.58353,3.1533 0.28657,4.8491 l 0.6131,1.1951 -1.55022,1.3417 c -2.80589,2.4285 -5.57634,4.3345 -7.58517,5.2184 -2.07527,0.913 -3.48044,1.3249 -3.83458,1.1239 -0.1156,-0.066 -0.44839,-0.7915 -0.73918,-1.613 z m 46.16394,16.3096 c -1.04503,-0.9068 -1.03007,-1.0897 0.1008,-1.2294 1.48484,-0.1835 5.31244,-1.578 9.90859,-3.6102 4.19847,-1.8563 7.16033,-2.7956 7.75357,-2.4589 0.39798,0.2259 -0.3469,1.831 -1.86715,4.0237 -1.64455,2.3719 -4.0073,4.4107 -7.12425,6.1474 -1.72315,0.96 -1.91075,1.0008 -2.87532,0.6239 -1.47186,-0.5751 -4.8127,-2.5561 -5.89615,-3.4964 z m -45.67142,-27.4041 c -0.83858,-3.4217 -0.10063,-7.7946 1.78866,-10.6013 0.40816,-0.6067 1.56335,-1.8787 2.56664,-2.827 2.40458,-2.2729 6.70161,-6.7631 10.40301,-10.8707 1.64302,-1.8234 3.05478,-3.2769 3.1372,-3.2301 0.0827,0.047 -0.1186,1.2724 -0.44723,2.7236 -0.53999,2.3863 -0.75644,2.8814 -2.264,5.1782 -1.38827,2.1151 -1.68723,2.7515 -1.78825,3.8069 -0.0992,1.031 -0.32465,1.5256 -1.21174,2.6528 -1.03949,1.3209 -1.09475,1.4915 -1.183,3.6568 -0.11137,2.7305 -0.52122,3.6997 -2.44457,5.7806 -1.57866,1.708 -3.03984,2.6683 -5.66024,3.7201 -2.33637,0.9379 -2.66883,0.939 -2.89648,0.01 z m 40.76803,23.087 c -0.77031,-0.8198 -1.77563,-2.0644 -2.23396,-2.7658 l -0.83343,-1.2752 1.20136,-0.064 c 10.0104,-0.5343 19.86979,-4.1742 25.37864,-9.3694 1.18252,-1.1151 1.21167,-1.125 1.44509,-0.4869 0.32891,0.899 0.18172,3.0597 -0.30262,4.442 -0.22195,0.6337 -1.0994,2.1934 -1.94966,3.4658 -1.50893,2.2578 -1.57357,2.3195 -2.69457,2.5574 -0.63175,0.1339 -2.18054,0.6384 -3.44183,1.1207 -1.26129,0.4824 -3.91273,1.4971 -5.89213,2.2551 -1.9794,0.7579 -4.58023,1.6019 -5.77961,1.8755 -2.52859,0.5768 -2.79654,0.4808 -4.89728,-1.7549 z m -3.7394,-5.8843 -0.22197,-0.822 2.71204,-1.1778 c 6.0668,-2.6347 10.02493,-5.1607 13.27502,-8.4719 0.98195,-1.0003 1.86331,-1.7746 1.95856,-1.7205 0.4498,0.2553 0.94297,2.1368 0.85949,3.279 -0.11384,1.5592 -1.79955,4.6222 -3.32708,6.0458 -1.10225,1.0271 -4.24595,2.1338 -8.60226,3.0282 -2.44903,0.5028 -5.94712,0.9363 -6.23537,0.7727 -0.10784,-0.061 -0.29641,-0.4815 -0.41848,-0.9335 z m -69.15853,-43.5625 c 0.26898,-0.4034 3.45331,-3.4157 4.75506,-4.4981 7.83417,-6.5143 18.39578,-12.0576 29.91349,-15.7003 5.62179,-1.778 11.66594,-3.3142 11.7651,-2.9903 0.0266,0.087 -2.03047,1.647 -4.57142,3.4666 -2.54094,1.8197 -5.2601,3.7948 -6.04255,4.3891 -0.7825,0.5943 -4.91677,3.0827 -9.18734,5.5297 l -7.76462,4.449 -3.61763,0.5561 c -2.68225,0.4123 -4.65034,0.9483 -7.61256,2.0731 -5.01903,1.9058 -7.73811,2.876 -7.63753,2.7251 z"
           style="fill:#ffffff;fill-opacity:1;stroke:#ffffff;stroke-width:0;stroke-miterlimit:4;stroke-dasharray:none;stroke-opacity:1"
           id="path5557" />
      </g>
    </g>
  </g>
</svg>
